<?xml version="1.0" standalone="no"?>
<!DOCTYPE svg PUBLIC "-//W3C//DTD SVG 20010904//EN"
 "http://www.w3.org/TR/2001/REC-SVG-20010904/DTD/svg10.dtd">
<svg version="1.0" xmlns="http://www.w3.org/2000/svg"
 width="3300.000000pt" height="3300.000000pt" viewBox="0 0 3300.000000 3300.000000"
 preserveAspectRatio="xMidYMid meet">
<metadata>
Created by potrace 1.11, written by Peter Selinger 2001-2013
</metadata>
<g transform="translate(0.000000,3300.000000) scale(0.100000,-0.100000)"
fill="#000000" stroke="none">
<path d="M15755 32899 c-1581 -67 -3066 -339 -4535 -829 -1834 -611 -3528
-1532 -5042 -2742 -1313 -1049 -2448 -2281 -3394 -3683 -1138 -1689 -1968
-3625 -2400 -5600 -223 -1018 -272 -1340 -329 -2155 -45 -654 -55 -898 -55
-1395 0 -1996 352 -3939 1048 -5785 665 -1762 1619 -3384 2836 -4820 2709
-3196 6511 -5232 10651 -5704 1246 -143 2514 -143 3760 0 2133 243 4219 912
6085 1951 2857 1592 5170 3985 6656 6888 1471 2875 2057 6118 1688 9350 -186
1636 -622 3243 -1287 4750 -1156 2620 -3001 4913 -5327 6619 -2523 1851 -5545
2945 -8665 3136 -490 30 -1240 38 -1690 19z m1473 -336 c-21 -2 -55 -2 -75 0
-21 2 -4 4 37 4 41 0 58 -2 38 -4z m-265 -10 c-7 -2 -21 -2 -30 0 -10 3 -4 5
12 5 17 0 24 -2 18 -5z m450 0 c-7 -2 -19 -2 -25 0 -7 3 -2 5 12 5 14 0 19 -2
13 -5z m-630 -10 c-7 -2 -19 -2 -25 0 -7 3 -2 5 12 5 14 0 19 -2 13 -5z m790
0 c-7 -2 -21 -2 -30 0 -10 3 -4 5 12 5 17 0 24 -2 18 -5z m-930 -10 c-7 -2
-19 -2 -25 0 -7 3 -2 5 12 5 14 0 19 -2 13 -5z m1064 1 c-3 -3 -12 -4 -19 -1
-8 3 -5 6 6 6 11 1 17 -2 13 -5z m-1190 -10 c-3 -3 -12 -4 -19 -1 -8 3 -5 6 6
6 11 1 17 -2 13 -5z m1306 -1 c-7 -2 -19 -2 -25 0 -7 3 -2 5 12 5 14 0 19 -2
13 -5z m-1420 -10 c-7 -2 -19 -2 -25 0 -7 3 -2 5 12 5 14 0 19 -2 13 -5z
m1534 1 c-3 -3 -12 -4 -19 -1 -8 3 -5 6 6 6 11 1 17 -2 13 -5z m-1640 -10 c-3
-3 -12 -4 -19 -1 -8 3 -5 6 6 6 11 1 17 -2 13 -5z m1750 0 c-3 -3 -12 -4 -19
-1 -8 3 -5 6 6 6 11 1 17 -2 13 -5z m-1850 -10 c-3 -3 -12 -4 -19 -1 -8 3 -5
6 6 6 11 1 17 -2 13 -5z m1940 0 c-3 -3 -12 -4 -19 -1 -8 3 -5 6 6 6 11 1 17
-2 13 -5z m-2030 -10 c-3 -3 -12 -4 -19 -1 -8 3 -5 6 6 6 11 1 17 -2 13 -5z
m2120 0 c-3 -3 -12 -4 -19 -1 -8 3 -5 6 6 6 11 1 17 -2 13 -5z m-2210 -10 c-3
-3 -12 -4 -19 -1 -8 3 -5 6 6 6 11 1 17 -2 13 -5z m2300 0 c-3 -3 -12 -4 -19
-1 -8 3 -5 6 6 6 11 1 17 -2 13 -5z m-2380 -10 c-3 -3 -12 -4 -19 -1 -8 3 -5
6 6 6 11 1 17 -2 13 -5z m-80 -10 c-3 -3 -12 -4 -19 -1 -8 3 -5 6 6 6 11 1 17
-2 13 -5z m2630 0 c-3 -3 -12 -4 -19 -1 -8 3 -5 6 6 6 11 1 17 -2 13 -5z
m-2780 -20 c-3 -3 -12 -4 -19 -1 -8 3 -5 6 6 6 11 1 17 -2 13 -5z m-70 -10
c-3 -3 -12 -4 -19 -1 -8 3 -5 6 6 6 11 1 17 -2 13 -5z m-1646 -197 c-10 -9
-11 -8 -5 6 3 10 9 15 12 12 3 -3 0 -11 -7 -18z m-91 -80 c0 -2 -12 -14 -27
-28 l-28 -24 24 28 c23 25 31 32 31 24z m340 -51 c0 -2 -8 -10 -17 -17 -16
-13 -17 -12 -4 4 13 16 21 21 21 13z m-70 -59 c0 -2 -10 -12 -22 -23 l-23 -19
19 23 c18 21 26 27 26 19z m-410 -41 c0 -2 -8 -10 -17 -17 -16 -13 -17 -12 -4
4 13 16 21 21 21 13z m-60 -69 c0 -2 -10 -12 -22 -23 l-23 -19 19 23 c18 21
26 27 26 19z m-50 -61 c0 -2 -8 -10 -17 -17 -16 -13 -17 -12 -4 4 13 16 21 21
21 13z m340 -9 c0 -2 -12 -14 -27 -28 l-28 -24 24 28 c23 25 31 32 31 24z
m-80 -90 c0 -2 -10 -12 -22 -23 l-23 -19 19 23 c18 21 26 27 26 19z m-50 -61
c0 -2 -8 -10 -17 -17 -16 -13 -17 -12 -4 4 13 16 21 21 21 13z m10021 -993
c13 -16 12 -17 -3 -4 -10 7 -18 15 -18 17 0 8 8 3 21 -13z m60 -50 c13 -16 12
-17 -3 -4 -17 13 -22 21 -14 21 2 0 10 -8 17 -17z m89 -78 c13 -14 21 -25 18
-25 -2 0 -15 11 -28 25 -13 14 -21 25 -18 25 2 0 15 -11 28 -25z m160 -152 c0
-8 -9 0 -50 45 l-45 47 48 -45 c26 -24 47 -45 47 -47z m240 -228 c47 -47 82
-85 80 -85 -3 0 -43 38 -90 85 -47 47 -82 85 -80 85 3 0 43 -38 90 -85z m324
49 c3 -9 11 -12 18 -8 7 4 10 3 5 -1 -4 -5 3 -19 15 -32 40 -42 13 -24 -32 23
-25 25 -37 42 -28 39 9 -4 19 -13 22 -21z m201 -214 c21 -22 37 -40 34 -40 -3
0 -23 18 -44 40 -21 22 -37 40 -34 40 3 0 23 -18 44 -40z m-235 -135 c30 -30
52 -55 49 -55 -2 0 -29 25 -59 55 -30 30 -52 55 -49 55 2 0 29 -25 59 -55z
m370 -10 c19 -19 32 -35 29 -35 -3 0 -20 16 -39 35 -19 19 -32 35 -29 35 3 0
20 -16 39 -35z m95 -105 c10 -11 16 -20 13 -20 -3 0 -13 9 -23 20 -10 11 -16
20 -13 20 3 0 13 -9 23 -20z m-319 -42 l29 -33 -32 29 c-31 28 -38 36 -30 36
2 0 16 -15 33 -32z m404 -53 c13 -14 21 -25 18 -25 -2 0 -15 11 -28 25 -13 14
-21 25 -18 25 2 0 15 -11 28 -25z m-300 -60 c13 -14 21 -25 18 -25 -2 0 -15
11 -28 25 -13 14 -21 25 -18 25 2 0 15 -11 28 -25z m371 -22 c13 -16 12 -17
-3 -4 -17 13 -22 21 -14 21 2 0 10 -8 17 -17z m-286 -73 c10 -11 16 -20 13
-20 -3 0 -13 9 -23 20 -10 11 -16 20 -13 20 3 0 13 -9 23 -20z m346 3 c13 -16
12 -17 -3 -4 -17 13 -22 21 -14 21 2 0 10 -8 17 -17z m-276 -83 c10 -11 16
-20 13 -20 -3 0 -13 9 -23 20 -10 11 -16 20 -13 20 3 0 13 -9 23 -20z m376
-37 c13 -16 12 -17 -3 -4 -17 13 -22 21 -14 21 2 0 10 -8 17 -17z m-316 -33
c10 -11 16 -20 13 -20 -3 0 -13 9 -23 20 -10 11 -16 20 -13 20 3 0 13 -9 23
-20z m406 -77 c13 -16 12 -17 -3 -4 -17 13 -22 21 -14 21 2 0 10 -8 17 -17z
m-300 -50 c13 -16 12 -17 -3 -4 -17 13 -22 21 -14 21 2 0 10 -8 17 -17z
m-13018 -100 c-7 -2 -21 -2 -30 0 -10 3 -4 5 12 5 17 0 24 -2 18 -5z m13108
-10 c13 -16 12 -17 -3 -4 -17 13 -22 21 -14 21 2 0 10 -8 17 -17z m-18921 -17
c0 -2 -8 -10 -17 -17 -16 -13 -17 -12 -4 4 13 16 21 21 21 13z m6195 -6 c3 -5
1 -10 -4 -10 -6 0 -11 5 -11 10 0 6 2 10 4 10 3 0 8 -4 11 -10z m13736 -7 c13
-16 12 -17 -3 -4 -17 13 -22 21 -14 21 2 0 10 -8 17 -17z m-13654 -9 c-3 -3
-12 -4 -19 -1 -8 3 -5 6 6 6 11 1 17 -2 13 -5z m-6327 -18 c0 -2 -8 -10 -17
-17 -16 -13 -17 -12 -4 4 13 16 21 21 21 13z m20031 -13 c13 -16 12 -17 -3 -4
-17 13 -22 21 -14 21 2 0 10 -8 17 -17z m-20301 -207 c0 -2 -8 -10 -17 -17
-16 -13 -17 -12 -4 4 13 16 21 21 21 13z m20571 -13 c13 -16 12 -17 -3 -4 -10
7 -18 15 -18 17 0 8 8 3 21 -13z m-20631 -37 c0 -2 -8 -10 -17 -17 -16 -13
-17 -12 -4 4 13 16 21 21 21 13z m20691 -13 c13 -16 12 -17 -3 -4 -10 7 -18
15 -18 17 0 8 8 3 21 -13z m-20761 -47 c0 -2 -8 -10 -17 -17 -16 -13 -17 -12
-4 4 13 16 21 21 21 13z m20831 -13 c13 -16 12 -17 -3 -4 -17 13 -22 21 -14
21 2 0 10 -8 17 -17z m-20891 -37 c0 -2 -8 -10 -17 -17 -16 -13 -17 -12 -4 4
13 16 21 21 21 13z m20951 -13 c13 -16 12 -17 -3 -4 -17 13 -22 21 -14 21 2 0
10 -8 17 -17z m-21021 -46 c0 -2 -10 -12 -22 -23 l-23 -19 19 23 c18 21 26 27
26 19z m21095 -17 c10 -11 16 -20 13 -20 -3 0 -13 9 -23 20 -10 11 -16 20 -13
20 3 0 13 -9 23 -20z m-21185 -63 c0 -2 -10 -12 -22 -23 l-23 -19 19 23 c18
21 26 27 26 19z m21275 -17 c10 -11 16 -20 13 -20 -3 0 -13 9 -23 20 -10 11
-16 20 -13 20 3 0 13 -9 23 -20z m85 -75 c13 -14 21 -25 18 -25 -2 0 -15 11
-28 25 -13 14 -21 25 -18 25 2 0 15 -11 28 -25z m-21450 12 c0 -2 -10 -12 -22
-23 l-23 -19 19 23 c18 21 26 27 26 19z m-80 -70 c0 -2 -15 -16 -32 -33 l-33
-29 29 33 c28 30 36 37 36 29z m21626 -29 l29 -33 -32 29 c-31 28 -38 36 -30
36 2 0 16 -15 33 -32z m134 -123 c19 -19 32 -35 29 -35 -3 0 -20 16 -39 35
-19 19 -32 35 -29 35 3 0 20 -16 39 -35z m-21900 22 c0 -2 -17 -19 -37 -38
l-38 -34 34 38 c33 34 41 42 41 34z m-210 -202 c-41 -41 -77 -75 -79 -75 -3 0
28 34 69 75 41 41 77 75 79 75 3 0 -28 -34 -69 -75z m22300 -2 l75 -78 -77 75
c-72 69 -83 80 -75 80 1 0 36 -35 77 -77z m-4810 -293 c0 -5 25 -10 55 -10 30
0 55 5 55 10 0 6 21 10 48 9 32 -1 40 -3 24 -7 -39 -12 -25 -27 28 -30 38 -2
52 1 56 12 8 21 25 10 18 -12 -5 -14 -2 -13 11 3 16 19 17 19 30 1 7 -10 19
-15 25 -11 6 4 20 -1 30 -10 11 -10 26 -15 36 -11 11 4 22 -1 31 -14 8 -11 22
-20 32 -20 10 0 26 -9 36 -20 11 -13 25 -18 37 -14 10 3 18 0 18 -6 0 -7 6
-10 14 -7 7 3 17 2 22 -3 5 -5 27 -11 48 -14 45 -7 130 -74 160 -127 15 -26 7
-20 -34 24 -59 64 -94 90 -83 60 7 -21 74 -93 86 -93 4 0 15 -8 25 -17 45 -43
94 -82 100 -81 14 4 50 -26 45 -38 -6 -16 79 -181 118 -230 16 -20 29 -43 29
-51 0 -7 7 -16 15 -19 18 -7 32 -37 107 -223 5 -14 32 -53 59 -87 27 -34 49
-66 49 -72 0 -5 16 -22 35 -36 19 -15 35 -33 35 -41 0 -8 10 -20 23 -26 12 -7
33 -24 47 -39 14 -15 57 -39 97 -54 39 -15 77 -34 85 -43 7 -9 31 -28 53 -42
22 -14 49 -34 60 -44 102 -92 162 -127 218 -127 10 0 35 -8 55 -19 20 -10 74
-37 119 -60 46 -22 90 -41 98 -41 9 0 18 -7 21 -15 4 -8 12 -15 18 -15 7 0 37
-18 68 -39 30 -22 117 -70 194 -107 137 -66 214 -115 241 -154 8 -11 21 -20
28 -20 8 0 22 -11 31 -25 9 -14 20 -25 25 -25 5 0 30 -15 56 -34 27 -18 68
-44 93 -56 69 -35 159 -100 208 -152 25 -27 50 -48 57 -48 6 0 21 -10 33 -22
22 -23 54 -50 104 -88 16 -12 48 -64 78 -127 28 -58 66 -132 84 -163 19 -32
37 -68 40 -81 4 -13 18 -46 31 -74 13 -27 30 -67 39 -87 9 -21 24 -55 34 -75
19 -41 22 -173 5 -195 -6 -7 -13 -31 -16 -52 -10 -65 -75 -219 -104 -248 -16
-15 -62 -56 -104 -90 -43 -35 -96 -87 -119 -116 -42 -54 -65 -68 -160 -98 -45
-14 -101 -17 -305 -18 -137 -1 -292 -6 -342 -10 -101 -10 -297 7 -322 28 -9 7
-83 12 -210 14 -108 1 -229 7 -269 12 -108 15 -255 12 -357 -6 -60 -11 -110
-13 -150 -9 -126 15 -560 6 -591 -12 -12 -7 -61 -22 -110 -33 -49 -11 -96 -22
-104 -24 -135 -39 -168 -49 -185 -56 -11 -5 -43 -14 -72 -20 -61 -14 -104 -44
-173 -124 -33 -38 -70 -67 -103 -83 -29 -13 -63 -30 -77 -38 -41 -22 -89 -98
-124 -199 -19 -53 -43 -110 -54 -128 -21 -33 -38 -94 -85 -303 -23 -98 -25
-121 -17 -210 5 -57 4 -124 -1 -155 -12 -75 -11 -273 1 -346 12 -66 16 -76 53
-154 22 -46 29 -78 37 -184 5 -71 14 -134 18 -140 5 -6 17 -31 26 -55 9 -24
38 -70 64 -103 100 -126 112 -145 128 -198 18 -62 87 -199 119 -239 40 -48 95
-138 95 -154 0 -26 69 -230 88 -257 31 -47 60 -105 67 -137 3 -18 10 -33 14
-33 10 0 31 -92 31 -135 0 -37 23 -99 33 -88 4 3 7 -9 7 -29 0 -43 20 -149 31
-164 27 -34 61 -155 66 -233 5 -80 51 -279 73 -322 6 -10 13 -52 17 -94 5 -67
4 -77 -13 -90 -18 -14 -18 -16 -1 -29 23 -18 25 -199 2 -222 -19 -19 -19 -29
1 -48 8 -9 19 -44 25 -78 5 -35 17 -90 25 -124 17 -71 14 -441 -5 -559 -6 -38
-15 -129 -20 -201 -12 -164 -19 -205 -41 -225 -14 -14 -18 -48 -24 -227 -5
-162 -11 -225 -26 -278 -29 -100 -40 -241 -39 -489 0 -160 -4 -250 -16 -330
-10 -60 -19 -157 -21 -215 -5 -145 -35 -349 -56 -377 -5 -6 -11 -172 -14 -370
-4 -331 -15 -505 -35 -544 -4 -8 -15 -69 -24 -134 -13 -96 -14 -123 -4 -141
14 -27 6 -331 -11 -399 -37 -147 -77 -362 -115 -610 -11 -72 -23 -107 -63
-185 -28 -52 -62 -135 -77 -185 -32 -109 -79 -233 -111 -297 -13 -26 -36 -89
-51 -140 -14 -51 -29 -95 -32 -98 -3 -3 -7 -41 -9 -85 -1 -44 -11 -120 -23
-170 -11 -49 -30 -149 -43 -221 -25 -142 -29 -156 -51 -147 -9 3 -15 -1 -15
-10 0 -8 5 -17 11 -19 13 -4 0 -53 -54 -193 -19 -49 -43 -125 -53 -167 -13
-54 -24 -78 -34 -78 -13 0 -13 1 0 10 8 5 10 10 4 10 -23 0 -43 -36 -41 -72 3
-45 17 -63 17 -22 0 17 7 39 16 50 15 18 15 18 9 -11 -8 -34 -22 -112 -31
-167 -4 -21 -11 -38 -16 -38 -4 0 -6 11 -2 24 7 29 -2 36 -39 29 -31 -6 -34
-24 -13 -93 13 -46 28 -56 34 -23 4 20 22 43 22 28 -1 -37 -63 -230 -80 -249
-5 -5 -6 11 -3 35 l6 44 -25 -23 c-18 -16 -28 -38 -32 -72 -5 -40 -11 -49 -30
-54 -39 -10 -61 -99 -33 -128 8 -7 12 -19 9 -26 -7 -21 14 -13 25 11 14 28 43
122 43 139 0 7 10 24 21 38 17 21 20 21 14 5 -3 -11 -26 -81 -51 -155 -33
-100 -48 -167 -59 -260 -14 -119 -51 -244 -89 -305 -18 -29 -80 -196 -111
-300 -32 -107 -34 -113 -70 -190 -42 -90 -71 -183 -85 -266 -6 -41 -18 -101
-26 -135 -10 -41 -14 -128 -15 -275 0 -125 -7 -281 -17 -374 -16 -147 -19
-160 -37 -160 -11 0 -21 -8 -23 -19 -3 -14 0 -17 12 -13 23 9 21 -39 -1 -52
-12 -7 -14 -13 -7 -18 7 -5 13 -53 16 -120 3 -76 9 -117 19 -129 11 -13 14
-58 15 -203 1 -177 5 -221 39 -371 9 -36 33 -157 55 -270 21 -113 48 -232 60
-264 27 -78 25 -104 -10 -217 -21 -67 -38 -102 -57 -120 -33 -30 -99 -69 -117
-69 -7 0 -68 -18 -137 -39 -140 -45 -327 -76 -374 -63 -16 5 -129 8 -250 6
-121 -1 -227 2 -236 6 -9 5 -20 5 -25 0 -13 -12 -119 7 -162 29 -21 11 -47 30
-59 43 -29 31 -90 161 -104 223 -10 44 -30 655 -31 975 -1 236 20 676 37 783
13 85 15 120 7 160 -6 33 -7 53 -1 55 6 3 6 8 0 16 -13 15 -2 59 13 53 7 -3
12 19 14 69 3 68 1 75 -27 106 l-29 33 -134 4 c-195 5 -210 4 -274 -19 -44
-15 -95 -22 -199 -26 -77 -3 -144 -10 -149 -15 -11 -10 -118 -12 -165 -3 -17
4 -31 13 -31 20 0 21 -37 17 -43 -5 -2 -11 -23 -29 -44 -40 -22 -11 -54 -36
-71 -56 -44 -50 -45 -113 -1 -190 31 -55 31 -56 19 -123 -7 -41 -12 -160 -11
-307 1 -233 1 -241 -21 -275 -15 -22 -23 -52 -24 -80 0 -25 -4 -126 -9 -225
-5 -130 -4 -201 5 -255 7 -41 13 -115 15 -165 2 -62 9 -107 24 -144 11 -30 28
-107 37 -170 9 -64 23 -131 30 -150 9 -22 14 -75 14 -154 l0 -121 -55 -93
c-31 -51 -70 -105 -88 -119 -50 -40 -173 -84 -261 -95 -44 -5 -100 -19 -125
-30 -94 -43 -210 -72 -271 -70 -25 1 -116 4 -203 5 -147 3 -160 5 -182 26 -13
12 -40 28 -62 35 -33 11 -43 22 -77 86 -21 41 -50 106 -65 144 -25 69 -26 76
-31 380 l-6 310 -37 65 -37 65 0 298 c0 164 -4 305 -9 315 -11 20 -35 309 -34
402 1 36 -3 111 -8 167 -10 116 -36 182 -90 227 -58 49 -85 58 -182 57 -51 0
-126 1 -168 2 -68 1 -80 -1 -115 -25 -51 -35 -184 -78 -243 -78 -25 0 -62 -5
-81 -10 -39 -12 -112 -29 -152 -35 -40 -7 -98 -42 -148 -90 -25 -24 -74 -66
-109 -94 -58 -46 -76 -68 -112 -141 -7 -14 -30 -54 -50 -90 -21 -36 -41 -78
-44 -95 -3 -16 -10 -50 -14 -75 -5 -25 -19 -72 -31 -104 -12 -33 -24 -91 -27
-130 -3 -48 -11 -80 -25 -99 -16 -24 -18 -33 -8 -62 6 -19 16 -37 21 -40 19
-12 9 -99 -16 -140 -14 -22 -28 -46 -31 -53 -8 -16 22 -50 49 -54 17 -3 23
-16 38 -93 17 -90 32 -130 70 -193 11 -19 22 -55 25 -80 3 -26 9 -63 14 -82 5
-19 12 -52 15 -72 3 -21 17 -50 30 -66 44 -52 42 -71 -16 -183 -33 -63 -62
-105 -76 -112 -13 -6 -23 -14 -23 -18 0 -12 -102 -74 -152 -93 -38 -14 -72
-16 -190 -13 -79 2 -170 6 -202 10 -41 4 -64 2 -74 -6 -10 -8 -59 -12 -151
-12 l-136 0 -108 52 c-121 58 -151 79 -184 128 -29 43 -29 79 0 158 21 60 22
72 22 463 0 288 -3 408 -12 425 -6 13 -17 49 -23 79 -7 30 -22 87 -35 125 -12
39 -28 104 -35 145 -6 41 -16 95 -22 120 -5 25 -13 72 -18 105 -4 33 -12 72
-18 86 -12 30 -57 69 -79 69 -8 0 -28 11 -45 25 -35 29 -58 32 -58 7 0 -16
-11 -18 -102 -19 -104 -1 -241 -24 -288 -48 -39 -20 -118 -110 -126 -142 -4
-15 -24 -57 -46 -91 -63 -101 -74 -192 -44 -362 16 -91 14 -175 -4 -225 -12
-33 18 -243 42 -294 19 -40 23 -73 30 -246 5 -110 10 -306 11 -435 2 -215 4
-241 25 -301 20 -58 22 -82 20 -204 -2 -110 -6 -139 -18 -146 -73 -40 -189
-88 -255 -108 -44 -12 -116 -35 -160 -51 -121 -42 -156 -48 -336 -56 -142 -6
-174 -4 -225 11 -45 13 -79 16 -142 12 -68 -5 -93 -3 -135 13 -29 11 -90 26
-137 33 -96 16 -160 43 -216 91 l-38 33 2 104 c3 122 19 244 37 279 29 57 38
160 31 349 -3 102 -11 209 -16 236 -6 28 -17 86 -24 130 -18 105 -52 220 -71
235 -8 7 -15 19 -15 27 0 9 -8 32 -19 52 -10 20 -31 66 -46 103 -15 37 -41 88
-58 114 -18 26 -36 55 -42 63 -37 58 -79 112 -117 147 -42 40 -170 128 -205
141 -10 4 -51 32 -91 62 -41 31 -90 68 -110 83 -47 35 -126 65 -192 74 -47 6
-60 14 -132 82 -59 55 -102 84 -163 113 -46 21 -89 39 -98 39 -8 0 -45 11 -83
26 -38 14 -130 45 -204 70 -74 25 -148 51 -165 58 -16 8 -50 23 -75 34 -25 11
-73 45 -108 76 -34 31 -80 65 -101 76 -51 25 -164 58 -276 79 -49 10 -101 23
-114 30 -20 11 -125 87 -216 157 -175 133 -264 184 -505 288 -73 32 -99 50
-186 134 -55 53 -124 115 -153 137 -29 22 -94 77 -144 123 -51 46 -125 108
-166 139 -40 31 -86 70 -102 87 -90 98 -181 212 -243 304 -16 24 -43 54 -60
68 -74 59 -115 95 -220 195 -430 410 -441 421 -497 508 -61 94 -121 150 -216
201 -73 38 -234 194 -349 336 -45 56 -111 122 -171 170 -54 43 -100 82 -102
88 -2 5 -36 44 -76 87 -71 75 -165 192 -165 203 0 4 -22 34 -49 69 -27 34 -62
83 -77 109 -47 76 -184 278 -231 340 -24 31 -43 59 -43 62 0 2 -64 101 -143
219 -79 117 -147 220 -151 228 -4 8 -17 31 -29 51 -164 274 -192 323 -227 393
-55 110 -203 342 -227 358 -7 4 -13 12 -13 17 0 12 -141 185 -204 250 -73 77
-93 114 -168 313 -6 15 -36 50 -67 79 -71 64 -84 87 -100 168 -7 36 -19 81
-26 100 -8 19 -19 55 -26 80 -10 41 -65 153 -93 190 -24 32 -46 87 -61 150
-28 126 -57 225 -70 246 -8 12 -21 64 -31 115 -9 52 -20 103 -25 114 -4 11
-15 74 -24 140 -10 66 -21 127 -25 136 -13 23 -29 162 -40 344 -6 88 -14 176
-20 195 -5 19 -21 80 -35 135 -14 55 -30 114 -35 131 -6 17 -10 93 -10 170 0
76 -5 166 -11 199 -6 33 -14 157 -19 275 -6 167 -12 225 -26 260 -14 38 -18
80 -18 255 -2 382 3 415 94 635 17 41 34 98 37 125 3 28 10 58 15 68 5 9 20
63 33 120 22 96 63 228 85 272 5 11 14 45 20 75 22 120 30 153 39 164 5 6 13
27 19 46 6 19 20 60 33 90 12 30 25 64 30 75 16 44 51 122 68 155 34 65 198
336 274 450 41 61 127 224 127 239 0 26 127 280 170 339 25 34 88 113 140 175
52 61 108 130 125 152 16 22 34 45 39 50 6 6 24 30 40 55 63 98 164 215 337
389 182 183 264 261 274 261 5 0 25 17 45 38 19 20 46 45 60 54 14 9 82 68
152 130 128 114 153 130 363 227 67 32 199 102 274 148 20 12 43 25 51 29 8 4
29 17 45 29 77 56 443 235 480 235 13 0 115 54 115 61 0 8 120 69 135 69 5 0
27 9 49 19 100 48 156 69 226 85 87 20 174 46 319 93 58 19 150 41 205 49 56
8 112 19 126 24 14 6 57 14 95 20 144 19 192 28 252 48 34 11 88 24 120 27 32
4 64 13 72 19 19 15 249 13 278 -2 32 -18 250 -20 288 -4 38 16 471 11 555 -6
30 -6 197 -15 370 -20 179 -5 324 -13 335 -19 11 -5 81 -16 155 -22 155 -15
183 -23 210 -61 11 -16 41 -38 67 -51 42 -20 63 -23 202 -24 110 -1 174 -7
216 -18 32 -10 65 -17 73 -17 8 0 55 -20 105 -44 51 -25 112 -48 137 -52 25
-4 50 -10 55 -14 6 -4 42 -10 82 -12 49 -4 83 -12 109 -28 46 -27 192 -76 254
-85 67 -10 190 -45 230 -66 19 -10 73 -36 120 -59 47 -22 103 -52 125 -65 22
-13 56 -33 75 -44 19 -10 55 -36 80 -58 56 -48 84 -66 186 -118 45 -23 113
-63 151 -88 44 -29 106 -58 169 -78 109 -36 169 -68 178 -97 13 -39 125 -131
216 -177 69 -35 114 -67 183 -132 51 -47 103 -93 117 -102 14 -8 27 -18 30
-21 3 -3 40 -35 83 -70 43 -36 107 -99 142 -142 63 -74 163 -167 279 -258 93
-72 101 -111 15 -79 -28 11 -74 37 -102 58 -53 40 -161 102 -232 135 -22 10
-78 44 -125 75 -47 31 -102 63 -122 73 -45 20 -46 25 -12 38 23 9 25 14 22 57
l-3 48 -70 0 -70 0 -3 -31 -3 -31 -62 33 c-34 19 -73 34 -88 34 -39 0 -118 44
-179 99 -42 39 -74 57 -135 78 -44 15 -89 28 -100 29 -18 2 -104 21 -176 39
-14 4 -56 31 -93 61 -37 30 -75 54 -84 54 -10 0 -27 6 -38 14 -11 8 -46 21
-79 30 -32 8 -61 19 -64 24 -14 21 -196 109 -252 121 -50 11 -151 50 -211 82
-20 10 -42 19 -48 19 -5 0 -29 9 -53 20 -23 11 -83 26 -134 34 -73 12 -110 24
-180 62 -48 25 -93 50 -99 55 -6 5 -35 14 -65 20 -30 6 -64 17 -76 25 -12 8
-66 19 -120 25 -54 6 -118 19 -143 29 -112 45 -204 63 -365 70 -88 4 -194 15
-235 24 -92 21 -116 24 -310 35 -85 5 -180 17 -210 26 -61 17 -101 22 -240 29
-52 3 -138 8 -190 11 -54 4 -110 2 -130 -3 -19 -6 -91 -19 -160 -31 -69 -11
-159 -27 -200 -36 -41 -10 -83 -17 -92 -16 -30 1 -41 1 -93 -4 -139 -14 -235
-29 -280 -45 -70 -25 -95 -30 -206 -40 -95 -8 -212 -43 -249 -75 -35 -30 -183
-95 -285 -126 -117 -34 -192 -67 -265 -114 -25 -16 -58 -36 -75 -46 -117 -64
-267 -163 -298 -196 -11 -13 -26 -23 -33 -23 -7 0 -19 -8 -26 -17 -7 -10 -35
-36 -63 -58 -27 -22 -97 -81 -155 -130 -58 -50 -126 -105 -151 -122 -72 -49
-176 -135 -264 -217 -160 -149 -222 -204 -315 -280 -169 -138 -210 -183 -321
-351 -132 -199 -137 -208 -170 -275 -14 -30 -45 -84 -67 -120 -68 -107 -179
-311 -208 -380 -43 -105 -65 -154 -74 -170 -5 -8 -26 -44 -46 -80 -20 -36 -53
-87 -72 -113 -86 -120 -141 -270 -212 -582 -20 -86 -53 -193 -93 -296 -13 -35
-32 -93 -41 -129 -10 -36 -22 -79 -27 -96 -5 -17 -9 -42 -9 -56 0 -41 -10 -58
-35 -58 -28 0 -49 -24 -41 -46 3 -9 19 -21 34 -26 27 -10 28 -14 25 -62 -11
-191 -26 -351 -34 -373 -12 -31 -12 -376 0 -389 5 -5 11 -137 13 -294 4 -284
4 -285 31 -350 15 -35 32 -94 38 -130 12 -80 27 -146 41 -183 7 -19 7 -31 -1
-40 -6 -8 -8 -16 -5 -20 3 -3 10 -37 15 -76 4 -39 22 -110 38 -158 16 -48 37
-124 46 -168 10 -46 34 -111 56 -152 21 -39 42 -96 48 -127 15 -79 56 -161
120 -237 31 -37 79 -106 106 -154 85 -149 98 -171 158 -264 31 -50 57 -96 57
-103 0 -15 156 -326 175 -348 7 -8 15 -27 18 -41 4 -14 18 -42 32 -63 14 -20
25 -40 25 -45 0 -4 16 -29 36 -54 l36 -46 -21 -27 c-25 -32 -27 -61 -4 -86 17
-19 63 -24 79 -8 7 7 25 -11 56 -52 26 -35 88 -103 139 -153 187 -182 223
-221 263 -281 107 -161 263 -321 381 -390 33 -20 107 -82 165 -138 116 -113
164 -151 213 -169 28 -11 102 -49 156 -82 33 -19 81 -64 81 -74 0 -6 6 -11 13
-11 7 0 22 -8 33 -18 28 -27 102 -80 234 -168 63 -43 135 -94 160 -115 58 -48
167 -122 218 -148 29 -15 42 -29 47 -51 7 -33 19 -38 33 -14 8 15 15 13 58
-12 27 -15 67 -40 89 -55 36 -24 158 -69 315 -115 87 -26 159 -55 184 -75 42
-33 160 -68 295 -89 72 -11 141 -26 154 -34 48 -31 156 -65 237 -76 47 -6 99
-13 115 -16 114 -20 282 -28 340 -15 28 6 91 18 140 27 94 17 226 57 260 78
32 20 183 72 265 91 84 19 114 33 181 80 25 18 82 52 125 76 43 23 113 68 155
99 42 32 128 83 190 114 81 41 137 78 194 128 44 38 123 99 175 134 105 71
178 124 291 213 42 33 107 79 145 102 38 23 83 52 100 65 17 13 34 24 39 24
16 0 97 70 230 200 148 144 223 196 350 239 76 25 122 48 158 78 16 12 34 23
42 23 7 0 18 6 24 14 6 7 57 31 113 52 85 33 110 48 155 92 49 48 166 117 231
137 12 3 22 13 22 21 0 16 16 19 25 4 9 -15 35 -12 35 4 0 9 19 16 57 21 31 4
93 20 137 37 50 18 82 25 84 19 2 -6 11 -11 19 -11 9 0 13 6 9 15 -3 8 3 19
13 25 14 7 20 6 25 -6 3 -8 11 -12 17 -9 6 4 8 13 5 20 -2 7 3 16 12 20 9 3
18 1 20 -4 5 -14 32 -14 32 -1 0 6 -6 10 -12 10 -7 0 -4 6 6 12 14 8 24 8 37
-1 25 -15 91 16 83 39 -4 12 -3 13 7 3 18 -17 32 -16 26 1 -4 9 1 17 11 20 29
8 88 16 74 10 -15 -7 -6 -24 14 -24 10 0 13 6 10 18 -5 14 10 22 90 46 52 16
97 33 100 38 3 4 12 8 21 8 8 0 37 11 65 25 54 27 83 33 52 11 -32 -24 -7 -31
36 -10 46 22 53 37 13 29 -23 -5 -25 -4 -11 5 45 28 341 50 393 29 23 -9 26
-13 13 -16 -10 -3 -18 -8 -18 -12 0 -10 211 -20 258 -13 56 8 35 22 -33 22
-64 0 -86 12 -42 24 36 10 175 7 182 -4 3 -5 27 -10 53 -10 26 0 88 -12 137
-26 50 -14 117 -31 150 -38 42 -10 51 -14 30 -15 -16 0 -47 4 -68 10 -36 10
-77 6 -65 -6 3 -3 37 -12 77 -19 61 -12 74 -12 86 0 18 18 215 20 233 2 7 -7
38 -13 70 -13 31 -1 75 -9 97 -19 51 -22 105 -32 105 -18 0 5 -15 13 -32 16
-18 4 -42 14 -53 23 l-20 16 20 -8 c11 -4 49 -15 85 -24 49 -12 58 -16 38 -19
-51 -6 -31 -25 22 -20 37 4 50 1 55 -10 4 -11 8 -12 20 -2 17 14 50 8 109 -21
22 -10 44 -19 48 -19 5 0 25 -7 46 -16 39 -18 46 -20 76 -22 12 -1 16 -7 12
-17 -3 -8 -1 -15 4 -15 6 0 10 4 10 10 0 13 45 -4 46 -19 3 -24 5 -26 13 -13
12 19 131 -15 131 -37 0 -11 3 -12 8 -4 4 6 19 9 34 6 16 -3 25 -10 21 -16 -3
-6 -1 -7 6 -3 6 4 72 4 146 0 107 -5 132 -9 128 -20 -3 -8 1 -14 11 -14 9 0
16 5 16 10 0 6 45 10 115 10 70 0 115 -4 115 -10 0 -5 9 -10 21 -10 15 0 19 5
15 15 -5 13 14 15 134 15 87 0 140 -4 140 -10 0 -5 7 -10 16 -10 11 0 14 5 10
16 -5 13 0 16 28 12 19 -2 33 -1 30 3 -4 7 14 14 90 39 32 10 40 10 48 -1 8
-11 9 -11 5 1 -6 23 131 74 152 57 12 -10 14 -9 9 4 -5 12 4 21 34 35 22 10
51 17 65 16 13 -1 26 4 29 12 5 14 36 26 219 86 55 18 124 43 154 57 29 13 61
23 70 21 9 -2 23 4 32 13 9 9 88 40 175 69 88 29 171 60 185 69 46 28 83 55
109 79 14 13 75 61 136 108 62 46 114 91 118 99 3 9 12 12 22 8 13 -5 16 -2
12 8 -8 21 43 76 147 159 50 40 97 81 106 91 10 10 36 41 60 69 23 27 45 47
50 45 9 -6 21 24 14 35 -8 12 42 120 55 120 6 0 8 5 5 11 -12 18 42 142 58
132 6 -4 8 0 4 11 -4 10 19 70 62 159 38 78 74 159 81 181 8 23 20 41 32 44
14 3 16 7 7 13 -10 6 -5 27 21 93 18 47 36 83 40 81 5 -3 6 4 3 15 -3 12 0 20
6 20 7 0 9 5 6 10 -6 10 23 120 34 130 3 3 7 25 8 50 1 25 7 46 12 48 6 2 8
16 5 31 -4 16 -1 32 5 35 6 4 11 20 11 37 0 16 5 29 11 29 5 0 7 5 4 11 -9 13
3 99 13 98 19 -3 26 2 13 10 -12 7 -11 17 5 60 12 35 21 47 27 38 5 -8 6 -5 2
9 -7 27 21 94 40 94 18 0 20 20 3 20 -8 1 -6 6 5 14 11 9 14 15 7 18 -9 3 -8
18 4 58 9 29 16 75 16 101 0 35 5 51 18 58 14 8 15 12 5 22 -18 19 -17 89 1
89 24 0 31 22 11 36 -15 12 -16 18 -4 63 8 33 18 51 28 52 11 0 12 2 4 6 -14
5 -18 63 -5 63 4 0 7 91 8 202 0 150 4 203 13 206 9 3 9 7 0 19 -10 12 -10 17
2 25 11 7 11 11 2 15 -8 3 -12 20 -11 41 l1 37 4 -33 c3 -20 9 -32 16 -29 12
4 12 61 1 160 -5 40 -4 46 10 41 11 -4 16 0 16 14 0 12 -4 24 -10 27 -5 3 -10
12 -10 18 0 8 3 8 9 -2 12 -18 19 -4 27 57 8 60 -10 74 -21 16 -14 -76 -12
-23 4 103 9 73 22 138 29 145 9 9 12 9 12 -3 0 -8 -5 -20 -11 -26 -6 -6 -9
-26 -7 -44 2 -27 9 -36 32 -44 24 -8 31 -6 48 14 12 15 18 36 16 55 -3 27 -7
31 -35 34 -30 3 -31 4 -30 50 2 33 -2 46 -10 44 -10 -1 -13 20 -13 83 0 63 3
84 13 83 8 -2 13 14 15 51 3 50 2 53 -17 48 -26 -6 -28 1 -36 153 -6 125 -22
199 -80 360 -41 117 -62 219 -75 360 -4 52 -12 106 -16 119 -5 17 -4 22 4 17
7 -4 12 -18 12 -32 0 -15 6 -24 15 -24 17 0 21 40 5 56 -5 5 -16 43 -25 84
-16 78 -21 88 -32 76 -4 -4 0 -35 10 -69 18 -69 15 -87 -6 -36 -21 51 -30 120
-15 117 16 -4 23 31 9 45 -9 9 -14 8 -21 -3 -10 -17 -10 -18 -35 73 -19 67
-14 103 5 40 14 -45 24 -53 34 -28 5 14 -23 83 -55 135 -24 41 -89 156 -92
165 -3 6 -8 7 -12 2 -10 -9 30 -98 67 -151 27 -37 38 -73 20 -62 -27 17 -111
213 -186 436 -81 240 -106 331 -68 250 14 -30 16 -32 20 -14 4 26 -28 105 -35
86 -3 -6 -9 -10 -14 -6 -13 8 -11 24 4 22 15 -4 11 46 -7 82 -8 14 -21 42 -30
63 -19 44 -41 51 -32 10 4 -18 -2 -12 -16 17 -11 25 -32 66 -45 91 -13 26 -34
76 -47 110 -28 73 -81 195 -97 223 -6 10 -40 76 -76 145 -35 69 -82 159 -104
199 -37 66 -63 133 -135 337 -51 143 -64 189 -60 199 3 6 8 1 11 -11 4 -13 12
-23 17 -23 6 0 7 7 4 16 -3 9 -6 25 -6 35 0 16 -5 19 -20 14 -22 -7 -25 2 -35
103 -3 34 -12 82 -19 106 -12 38 -11 44 0 39 8 -3 14 1 14 9 0 22 -11 29 -26
17 -15 -12 -26 21 -49 153 -8 46 -26 118 -40 159 -14 41 -25 76 -25 78 0 2 9
-7 20 -20 22 -27 26 -14 9 28 -7 15 -11 45 -10 66 3 38 -6 46 -27 25 -7 -7
-12 -9 -12 -6 0 7 -35 244 -46 313 -4 22 -10 45 -14 50 -4 6 -13 33 -20 60 -7
28 -24 68 -37 91 -12 22 -23 49 -23 60 1 22 70 -113 70 -137 0 -8 7 -24 15
-35 8 -10 15 -32 15 -47 0 -18 4 -26 11 -21 6 3 8 17 4 31 -3 14 -1 31 6 39 6
8 9 26 6 41 -15 72 -19 90 -30 113 -7 14 -23 37 -37 51 -14 14 -33 38 -44 54
-14 20 -21 24 -27 14 -13 -21 -20 -5 -35 78 -16 94 -17 138 0 68 7 -32 16 -50
26 -50 18 0 26 49 12 79 -22 49 -48 206 -34 206 7 0 9 20 5 53 -11 107 -7 186
11 205 20 23 21 46 1 62 -18 15 -19 34 -3 60 10 16 10 24 1 40 -10 16 -9 28 8
67 15 36 18 57 13 88 -4 22 -7 48 -5 58 1 9 -3 17 -9 17 -15 0 -3 59 16 81 8
9 12 24 8 33 -3 9 -1 16 6 16 8 0 9 10 5 29 -6 30 20 111 37 111 5 0 7 9 3 19
-3 11 -1 22 5 26 7 4 9 19 5 35 -4 16 -2 31 5 35 6 4 8 15 5 25 -3 10 -1 21 5
25 5 3 10 13 10 22 0 8 8 27 19 41 10 15 19 38 19 52 0 14 6 39 13 55 13 32
16 40 18 54 0 5 10 13 22 16 16 5 19 12 15 30 -4 15 1 28 13 39 11 10 22 28
25 42 4 13 11 24 17 24 6 0 7 5 4 11 -4 5 1 19 11 30 9 10 13 19 9 19 -5 0 2
11 15 25 13 14 20 25 16 25 -4 0 2 9 12 21 11 11 18 29 15 39 -3 11 6 33 20
52 14 18 27 44 28 58 2 14 14 39 26 57 13 17 23 36 23 42 0 6 7 11 15 11 8 0
14 6 13 13 -2 8 10 11 41 9 l43 -4 -7 50 c-6 48 -6 50 39 93 24 24 57 54 71
66 19 16 25 28 20 43 -4 14 -1 22 12 27 32 11 73 56 68 74 -7 20 20 46 30 29
12 -19 35 10 35 44 0 40 16 56 56 56 44 0 94 19 94 36 0 8 7 17 15 20 8 4 22
23 31 43 34 76 50 102 72 119 13 9 35 27 50 39 14 12 40 25 57 29 35 7 73 39
86 72 5 13 13 20 19 17 5 -3 10 -1 10 4 0 6 11 11 25 11 16 0 25 6 25 15 0 8
6 15 13 16 60 4 124 30 133 54 3 8 11 12 17 9 7 -2 23 6 37 18 14 13 38 30 54
38 16 8 31 23 34 32 2 9 14 18 26 20 11 2 20 9 19 15 -2 10 17 20 70 37 9 3
18 5 20 4 1 -1 12 4 24 11 13 6 48 16 79 22 58 11 115 40 148 77 10 12 22 19
26 17 4 -3 10 2 14 10 4 10 19 15 48 14 41 -2 42 -2 10 -8 -38 -7 -47 -25 -15
-29 29 -4 66 16 59 33 -2 7 1 16 9 19 10 3 12 0 8 -12 -6 -16 -5 -16 14 1 11
9 22 14 25 11 4 -3 16 4 27 15 19 19 33 21 126 21 87 0 105 -3 105 -15 0 -11
12 -15 50 -15 28 0 50 5 50 10 0 6 -16 10 -36 10 -21 0 -33 4 -29 10 3 6 26
10 51 10 24 0 44 -4 44 -10 0 -5 13 -10 30 -10 22 0 28 4 24 15 -5 11 1 15 20
15 14 0 26 -4 26 -10z m-17940 -155 c-41 -41 -77 -75 -79 -75 -3 0 28 34 69
75 41 41 77 75 79 75 3 0 -28 -34 -69 -75z m23200 -2 l75 -78 -77 75 c-43 41
-78 76 -78 77 0 8 11 -3 80 -74z m-23340 -146 c0 -2 -17 -19 -37 -38 l-38 -34
34 38 c33 34 41 42 41 34z m23519 -41 c23 -23 28 -34 17 -32 -9 1 -15 5 -14 8
2 4 -8 18 -21 32 -14 14 -22 26 -20 26 3 0 20 -15 38 -34z m-23659 -109 c0 -2
-15 -16 -32 -33 l-33 -29 29 33 c28 30 36 37 36 29z m-90 -100 c0 -2 -10 -12
-22 -23 l-23 -19 19 23 c18 21 26 27 26 19z m-80 -90 c0 -2 -10 -12 -22 -23
l-23 -19 19 23 c18 21 26 27 26 19z m-80 -90 c0 -2 -10 -12 -22 -23 l-23 -19
19 23 c18 21 26 27 26 19z m-70 -81 c0 -2 -8 -10 -17 -17 -16 -13 -17 -12 -4
4 13 16 21 21 21 13z m4010 -40 c0 -2 -8 -10 -17 -17 -16 -13 -17 -12 -4 4 13
16 21 21 21 13z m-4060 -20 c0 -2 -8 -10 -17 -17 -16 -13 -17 -12 -4 4 13 16
21 21 21 13z m4010 -20 c0 -2 -8 -10 -17 -17 -16 -13 -17 -12 -4 4 13 16 21
21 21 13z m-4070 -50 c0 -2 -8 -10 -17 -17 -16 -13 -17 -12 -4 4 13 16 21 21
21 13z m12491 -33 c13 -16 12 -17 -3 -4 -17 13 -22 21 -14 21 2 0 10 -8 17
-17z m-8531 -7 c0 -2 -8 -10 -17 -17 -16 -13 -17 -12 -4 4 13 16 21 21 21 13z
m-4010 -20 c0 -2 -8 -10 -17 -17 -16 -13 -17 -12 -4 4 13 16 21 21 21 13z
m12601 -23 c13 -16 12 -17 -3 -4 -10 7 -18 15 -18 17 0 8 8 3 21 -13z m-8651
-7 c0 -2 -8 -10 -17 -17 -16 -13 -17 -12 -4 4 13 16 21 21 21 13z m8711 -43
c13 -16 12 -17 -3 -4 -10 7 -18 15 -18 17 0 8 8 3 21 -13z m-8781 -17 c0 -2
-8 -10 -17 -17 -16 -13 -17 -12 -4 4 13 16 21 21 21 13z m8870 -61 c13 -14 21
-25 18 -25 -2 0 -15 11 -28 25 -13 14 -21 25 -18 25 2 0 15 -11 28 -25z
m-8950 -8 c0 -2 -10 -12 -22 -23 l-23 -19 19 23 c18 21 26 27 26 19z m-90 -80
c0 -2 -15 -16 -32 -33 l-33 -29 29 33 c28 30 36 37 36 29z m9195 -57 c27 -27
47 -50 44 -50 -3 0 -27 23 -54 50 -27 28 -47 50 -44 50 3 0 27 -22 54 -50z
m-13125 26 c0 -2 -8 -10 -17 -17 -16 -13 -17 -12 -4 4 13 16 21 21 21 13z
m-40 -50 c0 -2 -8 -10 -17 -17 -16 -13 -17 -12 -4 4 13 16 21 21 21 13z
m16533 -33 c-72 -2 -194 -2 -270 0 -76 1 -16 3 132 3 149 0 211 -2 138 -3z
m-815 -10 c-16 -2 -40 -2 -55 0 -16 2 -3 4 27 4 30 0 43 -2 28 -4z m-300 -10
c-10 -2 -28 -2 -40 0 -13 2 -5 4 17 4 22 1 32 -1 23 -4z m-11598 -6 c0 -1 -37
-38 -82 -82 l-83 -80 80 83 c74 76 85 87 85 79z m11378 -4 c-10 -2 -26 -2 -35
0 -10 3 -2 5 17 5 19 0 27 -2 18 -5z m-185 -10 c-7 -2 -21 -2 -30 0 -10 3 -4
5 12 5 17 0 24 -2 18 -5z m-170 -10 c-7 -2 -19 -2 -25 0 -7 3 -2 5 12 5 14 0
19 -2 13 -5z m-1558 -23 c10 -11 16 -20 13 -20 -3 0 -13 9 -23 20 -10 11 -16
20 -13 20 3 0 13 -9 23 -20z m1418 13 c-7 -2 -19 -2 -25 0 -7 3 -2 5 12 5 14
0 19 -2 13 -5z m-130 -10 c-7 -2 -19 -2 -25 0 -7 3 -2 5 12 5 14 0 19 -2 13
-5z m-110 -10 c-7 -2 -19 -2 -25 0 -7 3 -2 5 12 5 14 0 19 -2 13 -5z m-110
-10 c-7 -2 -19 -2 -25 0 -7 3 -2 5 12 5 14 0 19 -2 13 -5z m-96 -9 c-3 -3 -12
-4 -19 -1 -8 3 -5 6 6 6 11 1 17 -2 13 -5z m-260 -30 c-3 -3 -12 -4 -19 -1 -8
3 -5 6 6 6 11 1 17 -2 13 -5z m-80 -10 c-3 -3 -12 -4 -19 -1 -8 3 -5 6 6 6 11
1 17 -2 13 -5z m-70 -10 c-3 -3 -12 -4 -19 -1 -8 3 -5 6 6 6 11 1 17 -2 13 -5z
m2031 -121 c-16 -2 -40 -2 -55 0 -16 2 -3 4 27 4 30 0 43 -2 28 -4z m-12298
-6 c0 -2 -15 -16 -32 -33 l-33 -29 29 33 c28 30 36 37 36 29z m11958 -4 c-10
-2 -28 -2 -40 0 -13 2 -5 4 17 4 22 1 32 -1 23 -4z m-255 -10 c-7 -2 -21 -2
-30 0 -10 3 -4 5 12 5 17 0 24 -2 18 -5z m-200 -10 c-7 -2 -21 -2 -30 0 -10 3
-4 5 12 5 17 0 24 -2 18 -5z m-160 -10 c-7 -2 -21 -2 -30 0 -10 3 -4 5 12 5
17 0 24 -2 18 -5z m-150 -10 c-7 -2 -19 -2 -25 0 -7 3 -2 5 12 5 14 0 19 -2
13 -5z m-136 -9 c-3 -3 -12 -4 -19 -1 -8 3 -5 6 6 6 11 1 17 -2 13 -5z m-120
-10 c-3 -3 -12 -4 -19 -1 -8 3 -5 6 6 6 11 1 17 -2 13 -5z m-110 -10 c-3 -3
-12 -4 -19 -1 -8 3 -5 6 6 6 11 1 17 -2 13 -5z m-100 -10 c-3 -3 -12 -4 -19
-1 -8 3 -5 6 6 6 11 1 17 -2 13 -5z m-90 -10 c-3 -3 -12 -4 -19 -1 -8 3 -5 6
6 6 11 1 17 -2 13 -5z m-10727 -7 c0 -2 -10 -12 -22 -23 l-23 -19 19 23 c18
21 26 27 26 19z m10477 -23 c-3 -3 -12 -4 -19 -1 -8 3 -5 6 6 6 11 1 17 -2 13
-5z m-140 -20 c-3 -3 -12 -4 -19 -1 -8 3 -5 6 6 6 11 1 17 -2 13 -5z m-10397
-28 c0 -2 -8 -10 -17 -17 -16 -13 -17 -12 -4 4 13 16 21 21 21 13z m10107 -88
c-3 -8 -6 -5 -6 6 -1 11 2 17 5 13 3 -3 4 -12 1 -19z m-10250 -54 c-3 -3 -12
-4 -19 -1 -8 3 -5 6 6 6 11 1 17 -2 13 -5z m-90 -10 c-3 -3 -12 -4 -19 -1 -8
3 -5 6 6 6 11 1 17 -2 13 -5z m-80 -10 c-3 -3 -12 -4 -19 -1 -8 3 -5 6 6 6 11
1 17 -2 13 -5z m10393 -68 c0 -2 -8 -10 -17 -17 -16 -13 -17 -12 -4 4 13 16
21 21 21 13z m-10423 -202 c-3 -3 -12 -4 -19 -1 -8 3 -5 6 6 6 11 1 17 -2 13
-5z m-3610 -96 c-3 -8 -6 -5 -6 6 -1 11 2 17 5 13 3 -3 4 -12 1 -19z m-10
-115 c-3 -10 -5 -4 -5 12 0 17 2 24 5 18 2 -7 2 -21 0 -30z m0 -185 c-3 -8 -6
-5 -6 6 -1 11 2 17 5 13 3 -3 4 -12 1 -19z m3410 -290 c-3 -8 -6 -5 -6 6 -1
11 2 17 5 13 3 -3 4 -12 1 -19z m-10 -175 c-3 -10 -5 -2 -5 17 0 19 2 27 5 18
2 -10 2 -26 0 -35z m-3567 24 c0 -2 -17 -19 -37 -38 l-38 -34 34 38 c33 34 41
42 41 34z m-110 -121 c0 -2 -8 -10 -17 -17 -16 -13 -17 -12 -4 4 13 16 21 21
21 13z m-60 -70 c0 -2 -8 -10 -17 -17 -16 -13 -17 -12 -4 4 13 16 21 21 21 13z
m3727 -209 c-2 -23 -3 -1 -3 48 0 50 1 68 3 42 2 -26 2 -67 0 -90z m-3827 89
c0 -2 -8 -10 -17 -17 -16 -13 -17 -12 -4 4 13 16 21 21 21 13z m3827 -463 c-2
-27 -3 -5 -3 47 0 52 1 74 3 48 2 -27 2 -69 0 -95z m10 -350 c-3 -10 -5 -2 -5
17 0 19 2 27 5 18 2 -10 2 -26 0 -35z m13552 -145 c1 -5 -3 -8 -9 -8 -5 0 -10
12 -9 28 0 24 1 25 9 7 5 -11 9 -23 9 -27z m-13542 -65 c-3 -10 -5 -4 -5 12 0
17 2 24 5 18 2 -7 2 -21 0 -30z m10 -170 c-3 -10 -5 -4 -5 12 0 17 2 24 5 18
2 -7 2 -21 0 -30z m10 -145 c-3 -7 -5 -2 -5 12 0 14 2 19 5 13 2 -7 2 -19 0
-25z m10 -120 c-3 -8 -6 -5 -6 6 -1 11 2 17 5 13 3 -3 4 -12 1 -19z m10 -120
c-3 -8 -6 -5 -6 6 -1 11 2 17 5 13 3 -3 4 -12 1 -19z m24496 -8 c3 -11 1 -20
-4 -20 -5 0 -9 9 -9 20 0 11 2 20 4 20 2 0 6 -9 9 -20z m-24486 -102 c-3 -8
-6 -5 -6 6 -1 11 2 17 5 13 3 -3 4 -12 1 -19z m24560 -390 c-3 -8 -6 -5 -6 6
-1 11 2 17 5 13 3 -3 4 -12 1 -19z m10 -80 c-3 -8 -6 -5 -6 6 -1 11 2 17 5 13
3 -3 4 -12 1 -19z m10 -90 c-3 -8 -6 -5 -6 6 -1 11 2 17 5 13 3 -3 4 -12 1
-19z m10 -100 c-3 -7 -5 -2 -5 12 0 14 2 19 5 13 2 -7 2 -19 0 -25z m10 -110
c-3 -8 -6 -5 -6 6 -1 11 2 17 5 13 3 -3 4 -12 1 -19z m10 -130 c-3 -8 -6 -5
-6 6 -1 11 2 17 5 13 3 -3 4 -12 1 -19z m10 -165 c-3 -10 -5 -4 -5 12 0 17 2
24 5 18 2 -7 2 -21 0 -30z m10 -245 c-2 -13 -4 -3 -4 22 0 25 2 35 4 23 2 -13
2 -33 0 -45z m0 -925 c-2 -16 -4 -5 -4 22 0 28 2 40 4 28 2 -13 2 -35 0 -50z
m-3400 -55 c-3 -8 -6 -5 -6 6 -1 11 2 17 5 13 3 -3 4 -12 1 -19z m3390 -175
c-3 -10 -5 -4 -5 12 0 17 2 24 5 18 2 -7 2 -21 0 -30z m-2819 -10 c-10 -2 -28
-2 -40 0 -13 2 -5 4 17 4 22 1 32 -1 23 -4z m635 0 c-13 -2 -35 -2 -50 0 -16
2 -5 4 22 4 28 0 40 -2 28 -4z m-816 -9 c-3 -3 -12 -4 -19 -1 -8 3 -5 6 6 6
11 1 17 -2 13 -5z m1071 -1 c-10 -2 -26 -2 -35 0 -10 3 -2 5 17 5 19 0 27 -2
18 -5z m-1181 -9 c-3 -3 -12 -4 -19 -1 -8 3 -5 6 6 6 11 1 17 -2 13 -5z m1376
-1 c-7 -2 -21 -2 -30 0 -10 3 -4 5 12 5 17 0 24 -2 18 -5z m1758 -10 c13 -16
12 -17 -3 -4 -17 13 -22 21 -14 21 2 0 10 -8 17 -17z m-1588 0 c-7 -2 -21 -2
-30 0 -10 3 -4 5 12 5 17 0 24 -2 18 -5z m150 -10 c-7 -2 -19 -2 -25 0 -7 3
-2 5 12 5 14 0 19 -2 13 -5z m140 -10 c-7 -2 -19 -2 -25 0 -7 3 -2 5 12 5 14
0 19 -2 13 -5z m130 -10 c-7 -2 -19 -2 -25 0 -7 3 -2 5 12 5 14 0 19 -2 13 -5z
m124 -9 c-3 -3 -12 -4 -19 -1 -8 3 -5 6 6 6 11 1 17 -2 13 -5z m120 -10 c-3
-3 -12 -4 -19 -1 -8 3 -5 6 6 6 11 1 17 -2 13 -5z m110 -10 c-3 -3 -12 -4 -19
-1 -8 3 -5 6 6 6 11 1 17 -2 13 -5z m110 -10 c-3 -3 -12 -4 -19 -1 -8 3 -5 6
6 6 11 1 17 -2 13 -5z m110 -10 c-3 -3 -12 -4 -19 -1 -8 3 -5 6 6 6 11 1 17
-2 13 -5z m100 -10 c-3 -3 -12 -4 -19 -1 -8 3 -5 6 6 6 11 1 17 -2 13 -5z
m100 -10 c-3 -3 -12 -4 -19 -1 -8 3 -5 6 6 6 11 1 17 -2 13 -5z m100 -10 c-3
-3 -12 -4 -19 -1 -8 3 -5 6 6 6 11 1 17 -2 13 -5z m108 -13 c3 -5 0 -13 -6
-17 -7 -4 -9 -3 -5 4 3 6 -2 13 -11 15 -16 4 -16 5 -1 6 9 0 19 -3 23 -8z
m-23714 -108 c13 -16 12 -17 -3 -4 -10 7 -18 15 -18 17 0 8 8 3 21 -13z m69
-78 c13 -14 21 -25 18 -25 -2 0 -15 11 -28 25 -13 14 -21 25 -18 25 2 0 15
-11 28 -25z m2238 -12 c-26 -2 -71 -2 -100 0 -29 2 -8 3 47 3 55 0 79 -1 53
-3z m1744 0 c-40 -2 -103 -2 -140 0 -37 2 -4 3 73 3 77 0 107 -2 67 -3z
m-2264 -10 c-16 -2 -40 -2 -55 0 -16 2 -3 4 27 4 30 0 43 -2 28 -4z m3025 0
c-24 -2 -62 -2 -85 0 -24 2 -5 4 42 4 47 0 66 -2 43 -4z m-3325 -10 c-10 -2
-26 -2 -35 0 -10 3 -2 5 17 5 19 0 27 -2 18 -5z m3889 0 c-20 -2 -52 -2 -70 0
-17 2 0 4 38 4 39 0 53 -2 32 -4z m-4094 -10 c-7 -2 -21 -2 -30 0 -10 3 -4 5
12 5 17 0 24 -2 18 -5z m4580 0 c-18 -2 -48 -2 -65 0 -18 2 -4 4 32 4 36 0 50
-2 33 -4z m-4740 -10 c-7 -2 -19 -2 -25 0 -7 3 -2 5 12 5 14 0 19 -2 13 -5z
m5175 0 c-15 -2 -42 -2 -60 0 -18 2 -6 4 27 4 33 0 48 -2 33 -4z m-5301 -9
c-3 -3 -12 -4 -19 -1 -8 3 -5 6 6 6 11 1 17 -2 13 -5z m5676 -1 c-13 -2 -33
-2 -45 0 -13 2 -3 4 22 4 25 0 35 -2 23 -4z m-5776 -9 c-3 -3 -12 -4 -19 -1
-8 3 -5 6 6 6 11 1 17 -2 13 -5z m-667 -48 c0 -2 -8 -10 -17 -17 -16 -13 -17
-12 -4 4 13 16 21 21 21 13z m437 -78 c-3 -8 -6 -5 -6 6 -1 11 2 17 5 13 3 -3
4 -12 1 -19z m-587 -41 c0 -2 -10 -12 -22 -23 l-23 -19 19 23 c18 21 26 27 26
19z m-100 -91 c0 -2 -8 -10 -17 -17 -16 -13 -17 -12 -4 4 13 16 21 21 21 13z
m-100 -109 c0 -2 -17 -19 -37 -38 l-38 -34 34 38 c33 34 41 42 41 34z m350
-20 c0 -2 -10 -12 -22 -23 l-23 -19 19 23 c18 21 26 27 26 19z m-120 -120 c0
-2 -19 -21 -42 -42 l-43 -40 40 43 c36 39 45 47 45 39z m-360 -11 c0 -2 -8
-10 -17 -17 -16 -13 -17 -12 -4 4 13 16 21 21 21 13z m210 -160 c0 -2 -8 -10
-17 -17 -16 -13 -17 -12 -4 4 13 16 21 21 21 13z m-6973 -618 c-3 -8 -6 -5 -6
6 -1 11 2 17 5 13 3 -3 4 -12 1 -19z m31920 0 c-3 -8 -6 -5 -6 6 -1 11 2 17 5
13 3 -3 4 -12 1 -19z m-31940 -170 c-3 -8 -6 -5 -6 6 -1 11 2 17 5 13 3 -3 4
-12 1 -19z m31960 0 c-3 -8 -6 -5 -6 6 -1 11 2 17 5 13 3 -3 4 -12 1 -19z
m-31970 -90 c-3 -8 -6 -5 -6 6 -1 11 2 17 5 13 3 -3 4 -12 1 -19z m31980 0
c-3 -8 -6 -5 -6 6 -1 11 2 17 5 13 3 -3 4 -12 1 -19z m-31990 -90 c-3 -8 -6
-5 -6 6 -1 11 2 17 5 13 3 -3 4 -12 1 -19z m32000 0 c-3 -8 -6 -5 -6 6 -1 11
2 17 5 13 3 -3 4 -12 1 -19z m-32010 -90 c-3 -8 -6 -5 -6 6 -1 11 2 17 5 13 3
-3 4 -12 1 -19z m32020 0 c-3 -8 -6 -5 -6 6 -1 11 2 17 5 13 3 -3 4 -12 1 -19z
m-32030 -110 c-3 -8 -6 -5 -6 6 -1 11 2 17 5 13 3 -3 4 -12 1 -19z m32040 0
c-3 -8 -6 -5 -6 6 -1 11 2 17 5 13 3 -3 4 -12 1 -19z m-32050 -120 c-3 -7 -5
-2 -5 12 0 14 2 19 5 13 2 -7 2 -19 0 -25z m32060 0 c-3 -7 -5 -2 -5 12 0 14
2 19 5 13 2 -7 2 -19 0 -25z m-32070 -110 c-3 -8 -6 -5 -6 6 -1 11 2 17 5 13
3 -3 4 -12 1 -19z m32080 0 c-3 -8 -6 -5 -6 6 -1 11 2 17 5 13 3 -3 4 -12 1
-19z m-32090 -145 c-3 -10 -5 -4 -5 12 0 17 2 24 5 18 2 -7 2 -21 0 -30z
m32102 -10 c-1 -37 -3 -42 -8 -23 -7 24 -3 70 5 70 2 0 4 -21 3 -47z m-32112
-145 c-3 -7 -5 -2 -5 12 0 14 2 19 5 13 2 -7 2 -19 0 -25z m-10 -175 c-3 -10
-5 -2 -5 17 0 19 2 27 5 18 2 -10 2 -26 0 -35z m-10 -255 c-2 -13 -4 -5 -4 17
-1 22 1 32 4 23 2 -10 2 -28 0 -40z m0 -90 c-3 -7 -5 -2 -5 12 0 14 2 19 5 13
2 -7 2 -19 0 -25z m10 -110 c-3 -8 -6 -5 -6 6 -1 11 2 17 5 13 3 -3 4 -12 1
-19z m10 -120 c-3 -8 -6 -5 -6 6 -1 11 2 17 5 13 3 -3 4 -12 1 -19z m10 -90
c-3 -8 -6 -5 -6 6 -1 11 2 17 5 13 3 -3 4 -12 1 -19z m32030 -110 c-3 -8 -6
-5 -6 6 -1 11 2 17 5 13 3 -3 4 -12 1 -19z m-32010 -60 c-3 -8 -6 -5 -6 6 -1
11 2 17 5 13 3 -3 4 -12 1 -19z m32040 -200 c-3 -7 -5 -2 -5 12 0 14 2 19 5
13 2 -7 2 -19 0 -25z m-32000 -70 c-3 -8 -6 -5 -6 6 -1 11 2 17 5 13 3 -3 4
-12 1 -19z m32010 -40 c-3 -8 -6 -5 -6 6 -1 11 2 17 5 13 3 -3 4 -12 1 -19z
m10 -110 c-3 -8 -6 -5 -6 6 -1 11 2 17 5 13 3 -3 4 -12 1 -19z m10 -175 c-3
-10 -5 -4 -5 12 0 17 2 24 5 18 2 -7 2 -21 0 -30z m10 -295 c-2 -18 -4 -4 -4
32 0 36 2 50 4 33 2 -18 2 -48 0 -65z m0 -215 c-3 -10 -5 -4 -5 12 0 17 2 24
5 18 2 -7 2 -21 0 -30z m-32085 -138 c3 -13 1 -22 -3 -19 -9 5 -13 44 -5 44 2
0 6 -11 8 -25z m32075 -7 c-3 -8 -6 -5 -6 6 -1 11 2 17 5 13 3 -3 4 -12 1 -19z
m-32070 -120 c-3 -7 -5 -2 -5 12 0 14 2 19 5 13 2 -7 2 -19 0 -25z m32060 0
c-3 -7 -5 -2 -5 12 0 14 2 19 5 13 2 -7 2 -19 0 -25z m-32050 -110 c-3 -8 -6
-5 -6 6 -1 11 2 17 5 13 3 -3 4 -12 1 -19z m32040 0 c-3 -8 -6 -5 -6 6 -1 11
2 17 5 13 3 -3 4 -12 1 -19z m-6937 -82 c0 -2 -8 -10 -17 -17 -16 -13 -17 -12
-4 4 13 16 21 21 21 13z m-25093 -28 c-3 -8 -6 -5 -6 6 -1 11 2 17 5 13 3 -3
4 -12 1 -19z m32020 0 c-3 -8 -6 -5 -6 6 -1 11 2 17 5 13 3 -3 4 -12 1 -19z
m-6977 -32 c0 -2 -8 -10 -17 -17 -16 -13 -17 -12 -4 4 13 16 21 21 21 13z
m-25033 -58 c-3 -8 -6 -5 -6 6 -1 11 2 17 5 13 3 -3 4 -12 1 -19z m32000 0
c-3 -8 -6 -5 -6 6 -1 11 2 17 5 13 3 -3 4 -12 1 -19z m-7017 -2 c0 -2 -8 -10
-17 -17 -16 -13 -17 -12 -4 4 13 16 21 21 21 13z m310 -40 c0 -2 -8 -10 -17
-17 -16 -13 -17 -12 -4 4 13 16 21 21 21 13z m-25283 -48 c-3 -8 -6 -5 -6 6
-1 11 2 17 5 13 3 -3 4 -12 1 -19z m24913 19 c0 -2 -15 -16 -32 -33 l-33 -29
29 33 c28 30 36 37 36 29z m7067 -19 c-3 -8 -6 -5 -6 6 -1 11 2 17 5 13 3 -3
4 -12 1 -19z m-6747 -12 c0 -2 -8 -10 -17 -17 -16 -13 -17 -12 -4 4 13 16 21
21 21 13z m-7479 -23 c13 -16 12 -17 -3 -4 -17 13 -22 21 -14 21 2 0 10 -8 17
-17z m-17744 -55 c-3 -8 -6 -5 -6 6 -1 11 2 17 5 13 3 -3 4 -12 1 -19z m25173
18 c0 -2 -8 -10 -17 -17 -16 -13 -17 -12 -4 4 13 16 21 21 21 13z m6787 -18
c-3 -8 -6 -5 -6 6 -1 11 2 17 5 13 3 -3 4 -12 1 -19z m-7167 -11 c0 -2 -15
-16 -32 -33 l-33 -29 29 33 c28 30 36 37 36 29z m330 -30 c0 -2 -15 -16 -32
-33 l-33 -29 29 33 c28 30 36 37 36 29z m-7229 -84 c13 -16 12 -17 -3 -4 -17
13 -22 21 -14 21 2 0 10 -8 17 -17z m-17874 -45 c-3 -8 -6 -5 -6 6 -1 11 2 17
5 13 3 -3 4 -12 1 -19z m31920 0 c-3 -8 -6 -5 -6 6 -1 11 2 17 5 13 3 -3 4
-12 1 -19z m-7297 9 c0 -1 -33 -34 -72 -72 l-73 -70 70 73 c64 67 75 77 75 69z
m370 0 c0 -2 -12 -14 -27 -28 l-28 -24 24 28 c23 25 31 32 31 24z m-7055 -37
c10 -11 16 -20 13 -20 -3 0 -13 9 -23 20 -10 11 -16 20 -13 20 3 0 13 -9 23
-20z m5982 -256 c-3 -3 -12 -4 -19 -1 -8 3 -5 6 6 6 11 1 17 -2 13 -5z m-180
-20 c-3 -3 -12 -4 -19 -1 -8 3 -5 6 6 6 11 1 17 -2 13 -5z m-104 -11 c-7 -2
-19 -2 -25 0 -7 3 -2 5 12 5 14 0 19 -2 13 -5z m-120 -10 c-7 -2 -19 -2 -25 0
-7 3 -2 5 12 5 14 0 19 -2 13 -5z m-130 -10 c-7 -2 -19 -2 -25 0 -7 3 -2 5 12
5 14 0 19 -2 13 -5z m-140 -10 c-7 -2 -21 -2 -30 0 -10 3 -4 5 12 5 17 0 24
-2 18 -5z m-160 -10 c-7 -2 -21 -2 -30 0 -10 3 -4 5 12 5 17 0 24 -2 18 -5z
m-180 -10 c-7 -2 -21 -2 -30 0 -10 3 -4 5 12 5 17 0 24 -2 18 -5z m-195 -10
c-10 -2 -26 -2 -35 0 -10 3 -2 5 17 5 19 0 27 -2 18 -5z m-21767 -390 c13 -16
12 -17 -3 -4 -10 7 -18 15 -18 17 0 8 8 3 21 -13z m50 -60 c13 -16 12 -17 -3
-4 -17 13 -22 21 -14 21 2 0 10 -8 17 -17z m3356 -15 c-3 -8 -6 -5 -6 6 -1 11
2 17 5 13 3 -3 4 -12 1 -19z m-3616 -85 c13 -16 12 -17 -3 -4 -17 13 -22 21
-14 21 2 0 10 -8 17 -17z m3416 1 c-3 -3 -12 -4 -19 -1 -8 3 -5 6 6 6 11 1 17
-2 13 -5z m-80 -10 c-3 -3 -12 -4 -19 -1 -8 3 -5 6 6 6 11 1 17 -2 13 -5z
m-180 -20 c-3 -3 -12 -4 -19 -1 -8 3 -5 6 6 6 11 1 17 -2 13 -5z m710 -26 c-3
-7 -5 -2 -5 12 0 14 2 19 5 13 2 -7 2 -19 0 -25z m-820 16 c-3 -3 -12 -4 -19
-1 -8 3 -5 6 6 6 11 1 17 -2 13 -5z m-124 -11 c-7 -2 -19 -2 -25 0 -7 3 -2 5
12 5 14 0 19 -2 13 -5z m-150 -10 c-7 -2 -19 -2 -25 0 -7 3 -2 5 12 5 14 0 19
-2 13 -5z m-175 -10 c-10 -2 -26 -2 -35 0 -10 3 -2 5 17 5 19 0 27 -2 18 -5z
m-230 -10 c-10 -2 -28 -2 -40 0 -13 2 -5 4 17 4 22 1 32 -1 23 -4z m-1485 -10
c-24 -2 -62 -2 -85 0 -24 2 -5 4 42 4 47 0 66 -2 43 -4z m1124 0 c-20 -2 -52
-2 -70 0 -17 2 0 4 38 4 39 0 53 -2 32 -4z m-1871 -65 l29 -33 -32 29 c-18 17
-33 31 -33 33 0 8 8 1 36 -29z m141 -275 c-3 -10 -5 -2 -5 17 0 19 2 27 5 18
2 -10 2 -26 0 -35z m-10 -400 c-2 -16 -4 -3 -4 27 0 30 2 43 4 28 2 -16 2 -40
0 -55z m10 -390 c-3 -10 -5 -2 -5 17 0 19 2 27 5 18 2 -10 2 -26 0 -35z m10
-190 c-3 -10 -5 -4 -5 12 0 17 2 24 5 18 2 -7 2 -21 0 -30z m10 -145 c-3 -7
-5 -2 -5 12 0 14 2 19 5 13 2 -7 2 -19 0 -25z m10 -120 c-3 -8 -6 -5 -6 6 -1
11 2 17 5 13 3 -3 4 -12 1 -19z m10 -110 c-3 -8 -6 -5 -6 6 -1 11 2 17 5 13 3
-3 4 -12 1 -19z m30 -270 c-3 -8 -6 -5 -6 6 -1 11 2 17 5 13 3 -3 4 -12 1 -19z
m10 -80 c-3 -8 -6 -5 -6 6 -1 11 2 17 5 13 3 -3 4 -12 1 -19z m24500 -70 c-3
-8 -6 -5 -6 6 -1 11 2 17 5 13 3 -3 4 -12 1 -19z m10 -80 c-3 -8 -6 -5 -6 6
-1 11 2 17 5 13 3 -3 4 -12 1 -19z m20 -180 c-3 -8 -6 -5 -6 6 -1 11 2 17 5
13 3 -3 4 -12 1 -19z m10 -90 c-3 -8 -6 -5 -6 6 -1 11 2 17 5 13 3 -3 4 -12 1
-19z m10 -100 c-3 -8 -6 -5 -6 6 -1 11 2 17 5 13 3 -3 4 -12 1 -19z m10 -110
c-3 -8 -6 -5 -6 6 -1 11 2 17 5 13 3 -3 4 -12 1 -19z m10 -120 c-3 -7 -5 -2
-5 12 0 14 2 19 5 13 2 -7 2 -19 0 -25z m10 -130 c-3 -7 -5 -2 -5 12 0 14 2
19 5 13 2 -7 2 -19 0 -25z m10 -135 c-3 -10 -5 -4 -5 12 0 17 2 24 5 18 2 -7
2 -21 0 -30z m10 -155 c-3 -7 -5 -2 -5 12 0 14 2 19 5 13 2 -7 2 -19 0 -25z
m10 -185 c-3 -10 -5 -4 -5 12 0 17 2 24 5 18 2 -7 2 -21 0 -30z m10 -255 c-2
-13 -4 -3 -4 22 0 25 2 35 4 23 2 -13 2 -33 0 -45z m-24190 -360 c-3 -8 -6 -5
-6 6 -1 11 2 17 5 13 3 -3 4 -12 1 -19z m5604 -325 c13 -16 12 -17 -3 -4 -10
7 -18 15 -18 17 0 8 8 3 21 -13z m80 -100 c13 -16 12 -17 -3 -4 -10 7 -18 15
-18 17 0 8 8 3 21 -13z m40 -50 c13 -16 12 -17 -3 -4 -10 7 -18 15 -18 17 0 8
8 3 21 -13z m22699 13 c0 -2 -8 -10 -17 -17 -16 -13 -17 -12 -4 4 13 16 21 21
21 13z m-4233 -108 c-2 -13 -4 -5 -4 17 -1 22 1 32 4 23 2 -10 2 -28 0 -40z
m4183 49 c0 -2 -10 -12 -22 -23 l-23 -19 19 23 c18 21 26 27 26 19z m-22519
-114 c13 -16 12 -17 -3 -4 -10 7 -18 15 -18 17 0 8 8 3 21 -13z m22429 14 c0
-1 -26 -27 -57 -57 l-58 -55 55 58 c50 53 60 62 60 54z m-22379 -74 c13 -16
12 -17 -3 -4 -10 7 -18 15 -18 17 0 8 8 3 21 -13z m18276 -45 c-3 -8 -6 -5 -6
6 -1 11 2 17 5 13 3 -3 4 -12 1 -19z m-18226 -15 c13 -16 12 -17 -3 -4 -10 7
-18 15 -18 17 0 8 8 3 21 -13z m22169 -17 c0 -2 -8 -10 -17 -17 -16 -13 -17
-12 -4 4 13 16 21 21 21 13z m-22119 -43 c13 -16 12 -17 -3 -4 -10 7 -18 15
-18 17 0 8 8 3 21 -13z m21967 -28 c-3 -3 -9 2 -12 12 -6 14 -5 15 5 6 7 -7
10 -15 7 -18z m-21917 -32 c13 -16 12 -17 -3 -4 -10 7 -18 15 -18 17 0 8 8 3
21 -13z m60 -70 c13 -16 12 -17 -3 -4 -10 7 -18 15 -18 17 0 8 8 3 21 -13z
m60 -70 c13 -16 12 -17 -3 -4 -10 7 -18 15 -18 17 0 8 8 3 21 -13z m64 -73
c10 -11 16 -20 13 -20 -3 0 -13 9 -23 20 -10 11 -16 20 -13 20 3 0 13 -9 23
-20z m20252 -46 c-3 -3 -12 -4 -19 -1 -8 3 -5 6 6 6 11 1 17 -2 13 -5z m-70
-10 c-3 -3 -12 -4 -19 -1 -8 3 -5 6 6 6 11 1 17 -2 13 -5z m1460 -36 c-3 -7
-5 -2 -5 12 0 14 2 19 5 13 2 -7 2 -19 0 -25z m-21562 2 c10 -11 16 -20 13
-20 -3 0 -13 9 -23 20 -10 11 -16 20 -13 20 3 0 13 -9 23 -20z m19952 14 c-3
-3 -12 -4 -19 -1 -8 3 -5 6 6 6 11 1 17 -2 13 -5z m-1680 -10 c-3 -3 -12 -4
-19 -1 -8 3 -5 6 6 6 11 1 17 -2 13 -5z m1590 0 c-3 -3 -12 -4 -19 -1 -8 3 -5
6 6 6 11 1 17 -2 13 -5z m-90 -10 c-3 -3 -12 -4 -19 -1 -8 3 -5 6 6 6 11 1 17
-2 13 -5z m-1330 -10 c-3 -3 -12 -4 -19 -1 -8 3 -5 6 6 6 11 1 17 -2 13 -5z
m1230 0 c-3 -3 -12 -4 -19 -1 -8 3 -5 6 6 6 11 1 17 -2 13 -5z m-1140 -10 c-3
-3 -12 -4 -19 -1 -8 3 -5 6 6 6 11 1 17 -2 13 -5z m1020 0 c-3 -3 -12 -4 -19
-1 -8 3 -5 6 6 6 11 1 17 -2 13 -5z m-894 -11 c-7 -2 -21 -2 -30 0 -10 3 -4 5
12 5 17 0 24 -2 18 -5z m750 0 c-7 -2 -21 -2 -30 0 -10 3 -4 5 12 5 17 0 24
-2 18 -5z m-530 -10 c-13 -2 -35 -2 -50 0 -16 2 -5 4 22 4 28 0 40 -2 28 -4z
m305 0 c-15 -2 -42 -2 -60 0 -18 2 -6 4 27 4 33 0 48 -2 33 -4z m-19098 -48
c13 -14 21 -25 18 -25 -2 0 -15 11 -28 25 -13 14 -21 25 -18 25 2 0 15 -11 28
-25z m21477 -77 c-3 -7 -5 -2 -5 12 0 14 2 19 5 13 2 -7 2 -19 0 -25z m-21352
-58 c21 -22 37 -40 34 -40 -3 0 -23 18 -44 40 -21 22 -37 40 -34 40 3 0 23
-18 44 -40z m18012 -26 c-3 -3 -12 -4 -19 -1 -8 3 -5 6 6 6 11 1 17 -2 13 -5z
m1690 0 c-3 -3 -12 -4 -19 -1 -8 3 -5 6 6 6 11 1 17 -2 13 -5z m-90 -10 c-3
-3 -12 -4 -19 -1 -8 3 -5 6 6 6 11 1 17 -2 13 -5z m-1430 -10 c-3 -3 -12 -4
-19 -1 -8 3 -5 6 6 6 11 1 17 -2 13 -5z m1330 0 c-3 -3 -12 -4 -19 -1 -8 3 -5
6 6 6 11 1 17 -2 13 -5z m-1240 -10 c-3 -3 -12 -4 -19 -1 -8 3 -5 6 6 6 11 1
17 -2 13 -5z m1130 0 c-3 -3 -12 -4 -19 -1 -8 3 -5 6 6 6 11 1 17 -2 13 -5z
m-1024 -11 c-7 -2 -19 -2 -25 0 -7 3 -2 5 12 5 14 0 19 -2 13 -5z m890 0 c-7
-2 -19 -2 -25 0 -7 3 -2 5 12 5 14 0 19 -2 13 -5z m-725 -10 c-10 -2 -26 -2
-35 0 -10 3 -2 5 17 5 19 0 27 -2 18 -5z m550 0 c-10 -2 -28 -2 -40 0 -13 2
-5 4 17 4 22 1 32 -1 23 -4z m-18828 -188 c13 -14 21 -25 18 -25 -2 0 -15 11
-28 25 -13 14 -21 25 -18 25 2 0 15 -11 28 -25z m5557 -41 c-3 -3 -12 -4 -19
-1 -8 3 -5 6 6 6 11 1 17 -2 13 -5z m11303 -118 c0 -2 -8 -10 -17 -17 -16 -13
-17 -12 -4 4 13 16 21 21 21 13z m-15973 -52 c-3 -3 -12 -4 -19 -1 -8 3 -5 6
6 6 11 1 17 -2 13 -5z m100 -10 c-3 -3 -12 -4 -19 -1 -8 3 -5 6 6 6 11 1 17
-2 13 -5z m15823 3 c0 -2 -10 -12 -22 -23 l-23 -19 19 23 c18 21 26 27 26 19z
m-15707 -14 c-7 -2 -19 -2 -25 0 -7 3 -2 5 12 5 14 0 19 -2 13 -5z m130 -10
c-7 -2 -19 -2 -25 0 -7 3 -2 5 12 5 14 0 19 -2 13 -5z m2300 0 c-7 -2 -21 -2
-30 0 -10 3 -4 5 12 5 17 0 24 -2 18 -5z m-2130 -10 c-7 -2 -21 -2 -30 0 -10
3 -4 5 12 5 17 0 24 -2 18 -5z m1925 0 c-10 -2 -26 -2 -35 0 -10 3 -2 5 17 5
19 0 27 -2 18 -5z m-1710 -10 c-10 -2 -28 -2 -40 0 -13 2 -5 4 17 4 22 1 32
-1 23 -4z m1465 0 c-13 -2 -33 -2 -45 0 -13 2 -3 4 22 4 25 0 35 -2 23 -4z
m-1126 -10 c-20 -2 -52 -2 -70 0 -17 2 0 4 38 4 39 0 53 -2 32 -4z m771 0
c-21 -2 -55 -2 -75 0 -21 2 -4 4 37 4 41 0 58 -2 38 -4z m14002 -36 c0 -2 -12
-14 -27 -28 l-28 -24 24 28 c23 25 31 32 31 24z m-11263 -13 c-3 -3 -12 -4
-19 -1 -8 3 -5 6 6 6 11 1 17 -2 13 -5z m-4630 -150 c-3 -3 -12 -4 -19 -1 -8
3 -5 6 6 6 11 1 17 -2 13 -5z m100 -10 c-3 -3 -12 -4 -19 -1 -8 3 -5 6 6 6 11
1 17 -2 13 -5z m106 -11 c-7 -2 -19 -2 -25 0 -7 3 -2 5 12 5 14 0 19 -2 13 -5z
m130 -10 c-7 -2 -19 -2 -25 0 -7 3 -2 5 12 5 14 0 19 -2 13 -5z m2440 0 c-7
-2 -21 -2 -30 0 -10 3 -4 5 12 5 17 0 24 -2 18 -5z m12937 3 c0 -2 -8 -10 -17
-17 -16 -13 -17 -12 -4 4 13 16 21 21 21 13z m-15227 -13 c-7 -2 -19 -2 -25 0
-7 3 -2 5 12 5 14 0 19 -2 13 -5z m2095 0 c-10 -2 -26 -2 -35 0 -10 3 -2 5 17
5 19 0 27 -2 18 -5z m-1900 -10 c-10 -2 -28 -2 -40 0 -13 2 -5 4 17 4 22 1 32
-1 23 -4z m1680 0 c-10 -2 -28 -2 -40 0 -13 2 -5 4 17 4 22 1 32 -1 23 -4z
m-1410 -10 c-16 -2 -40 -2 -55 0 -16 2 -3 4 27 4 30 0 43 -2 28 -4z m1120 0
c-15 -2 -42 -2 -60 0 -18 2 -6 4 27 4 33 0 48 -2 33 -4z m13482 -116 c0 -2
-17 -19 -37 -38 l-38 -34 34 38 c33 34 41 42 41 34z m-120 -110 c0 -2 -10 -12
-22 -23 l-23 -19 19 23 c18 21 26 27 26 19z m-90 -81 c0 -2 -8 -10 -17 -17
-16 -13 -17 -12 -4 4 13 16 21 21 21 13z m-70 -60 c0 -2 -8 -10 -17 -17 -16
-13 -17 -12 -4 4 13 16 21 21 21 13z m-8499 -43 c13 -16 12 -17 -3 -4 -10 7
-18 15 -18 17 0 8 8 3 21 -13z m8439 -7 c0 -2 -8 -10 -17 -17 -16 -13 -17 -12
-4 4 13 16 21 21 21 13z m-8389 -33 c13 -16 12 -17 -3 -4 -10 7 -18 15 -18 17
0 8 8 3 21 -13z m8329 -17 c0 -2 -8 -10 -17 -17 -16 -13 -17 -12 -4 4 13 16
21 21 21 13z m-8229 -63 c13 -16 12 -17 -3 -4 -10 7 -18 15 -18 17 0 8 8 3 21
-13z m12529 -127 c0 -2 -8 -10 -17 -17 -16 -13 -17 -12 -4 4 13 16 21 21 21
13z m-40 -50 c0 -2 -8 -10 -17 -17 -16 -13 -17 -12 -4 4 13 16 21 21 21 13z
m-220 -270 c0 -2 -8 -10 -17 -17 -16 -13 -17 -12 -4 4 13 16 21 21 21 13z
m-50 -60 c0 -2 -8 -10 -17 -17 -16 -13 -17 -12 -4 4 13 16 21 21 21 13z
m-24580 -88 c0 -6 -6 -5 -15 2 -8 7 -15 14 -15 16 0 2 7 1 15 -2 8 -4 15 -11
15 -16z m24520 18 c0 -2 -8 -10 -17 -17 -16 -13 -17 -12 -4 4 13 16 21 21 21
13z m-24479 -73 c13 -16 12 -17 -3 -4 -10 7 -18 15 -18 17 0 8 8 3 21 -13z
m24429 13 c0 -2 -8 -10 -17 -17 -16 -13 -17 -12 -4 4 13 16 21 21 21 13z
m-24365 -86 c10 -11 16 -20 13 -20 -3 0 -13 9 -23 20 -10 11 -16 20 -13 20 3
0 13 -9 23 -20z m24305 17 c0 -2 -10 -12 -22 -23 l-23 -19 19 23 c18 21 26 27
26 19z m-24225 -107 c10 -11 16 -20 13 -20 -3 0 -13 9 -23 20 -10 11 -16 20
-13 20 3 0 13 -9 23 -20z m24145 17 c0 -2 -10 -12 -22 -23 l-23 -19 19 23 c18
21 26 27 26 19z m-70 -80 c0 -2 -12 -14 -27 -28 l-28 -24 24 28 c23 25 31 32
31 24z m-23995 -27 c10 -11 16 -20 13 -20 -3 0 -13 9 -23 20 -10 11 -16 20
-13 20 3 0 13 -9 23 -20z m81 -92 l29 -33 -32 29 c-31 28 -38 36 -30 36 2 0
16 -15 33 -32z m23834 29 c0 -2 -15 -16 -32 -33 l-33 -29 29 33 c28 30 36 37
36 29z m-23710 -162 c19 -19 32 -35 29 -35 -3 0 -20 16 -39 35 -19 19 -32 35
-29 35 3 0 20 -16 39 -35z m23590 32 c0 -2 -17 -19 -37 -38 l-38 -34 34 38
c33 34 41 42 41 34z m-23410 -224 l75 -78 -77 75 c-43 41 -78 76 -78 77 0 8
11 -3 80 -74z m23200 2 c-41 -41 -77 -75 -79 -75 -3 0 28 34 69 75 41 41 77
75 79 75 3 0 -28 -34 -69 -75z m-22750 -452 l75 -78 -77 75 c-72 69 -83 80
-75 80 1 0 36 -35 77 -77z m22300 2 c-41 -41 -77 -75 -79 -75 -3 0 28 34 69
75 41 41 77 75 79 75 3 0 -28 -34 -69 -75z m-22110 -180 c19 -19 32 -35 29
-35 -3 0 -20 16 -39 35 -19 19 -32 35 -29 35 3 0 20 -16 39 -35z m21950 32 c0
-2 -17 -19 -37 -38 l-38 -34 34 38 c33 34 41 42 41 34z m-21814 -159 l29 -33
-32 29 c-18 17 -33 31 -33 33 0 8 8 1 36 -29z m21674 29 c0 -2 -15 -16 -32
-33 l-33 -29 29 33 c28 30 36 37 36 29z m-21585 -107 c10 -11 16 -20 13 -20
-3 0 -13 9 -23 20 -10 11 -16 20 -13 20 3 0 13 -9 23 -20z m21485 17 c0 -2
-12 -14 -27 -28 l-28 -24 24 28 c23 25 31 32 31 24z m-21395 -97 c10 -11 16
-20 13 -20 -3 0 -13 9 -23 20 -10 11 -16 20 -13 20 3 0 13 -9 23 -20z m14362
-12 c-3 -7 -5 -2 -5 12 0 14 2 19 5 13 2 -7 2 -19 0 -25z m6943 29 c0 -2 -10
-12 -22 -23 l-23 -19 19 23 c18 21 26 27 26 19z m-6683 -89 c-3 -8 -6 -5 -6 6
-1 11 2 17 5 13 3 -3 4 -12 1 -19z m190 16 c-3 -3 -12 -4 -19 -1 -8 3 -5 6 6
6 11 1 17 -2 13 -5z m-14722 -24 c10 -11 16 -20 13 -20 -3 0 -13 9 -23 20 -10
11 -16 20 -13 20 3 0 13 -9 23 -20z m14913 13 c-21 -2 -55 -2 -75 0 -21 2 -4
4 37 4 41 0 58 -2 38 -4z m6212 4 c0 -2 -10 -12 -22 -23 l-23 -19 19 23 c18
21 26 27 26 19z m-6863 -59 c-3 -8 -6 -5 -6 6 -1 11 2 17 5 13 3 -3 4 -12 1
-19z m-14186 -25 c13 -16 12 -17 -3 -4 -10 7 -18 15 -18 17 0 8 8 3 21 -13z
m20969 13 c0 -2 -8 -10 -17 -17 -16 -13 -17 -12 -4 4 13 16 21 21 21 13z
m-6523 -38 c-3 -8 -6 -5 -6 6 -1 11 2 17 5 13 3 -3 4 -12 1 -19z m-14386 -25
c13 -16 12 -17 -3 -4 -10 7 -18 15 -18 17 0 8 8 3 21 -13z m20849 13 c0 -2 -8
-10 -17 -17 -16 -13 -17 -12 -4 4 13 16 21 21 21 13z m-20779 -73 c13 -16 12
-17 -3 -4 -10 7 -18 15 -18 17 0 8 8 3 21 -13z m20709 13 c0 -2 -8 -10 -17
-17 -16 -13 -17 -12 -4 4 13 16 21 21 21 13z m-20649 -63 c13 -16 12 -17 -3
-4 -10 7 -18 15 -18 17 0 8 8 3 21 -13z m20589 13 c0 -2 -8 -10 -17 -17 -16
-13 -17 -12 -4 4 13 16 21 21 21 13z m-20319 -233 c13 -16 12 -17 -3 -4 -10 7
-18 15 -18 17 0 8 8 3 21 -13z m20049 13 c0 -2 -8 -10 -17 -17 -16 -13 -17
-12 -4 4 13 16 21 21 21 13z m-19999 -53 c13 -16 12 -17 -3 -4 -10 7 -18 15
-18 17 0 8 8 3 21 -13z m19949 13 c0 -2 -8 -10 -17 -17 -16 -13 -17 -12 -4 4
13 16 21 21 21 13z m-18399 -313 c13 -16 12 -17 -3 -4 -10 7 -18 15 -18 17 0
8 8 3 21 -13z m94 -113 c10 -11 16 -20 13 -20 -3 0 -13 9 -23 20 -10 11 -16
20 -13 20 3 0 13 -9 23 -20z m-304 -47 c13 -16 12 -17 -3 -4 -10 7 -18 15 -18
17 0 8 8 3 21 -13z m374 -33 c10 -11 16 -20 13 -20 -3 0 -13 9 -23 20 -10 11
-16 20 -13 20 3 0 13 -9 23 -20z m-284 -77 c13 -16 12 -17 -3 -4 -10 7 -18 15
-18 17 0 8 8 3 21 -13z m374 -23 c21 -22 37 -40 34 -40 -3 0 -23 18 -44 40
-21 22 -37 40 -34 40 3 0 23 -18 44 -40z m-310 -50 c10 -11 16 -20 13 -20 -3
0 -13 9 -23 20 -10 11 -16 20 -13 20 3 0 13 -9 23 -20z m85 -95 c19 -19 32
-35 29 -35 -3 0 -20 16 -39 35 -19 19 -32 35 -29 35 3 0 20 -16 39 -35z m195
-205 c49 -49 87 -90 85 -90 -3 0 -46 41 -95 90 -49 50 -87 90 -85 90 3 0 46
-40 95 -90z m335 45 c19 -19 32 -35 29 -35 -3 0 -20 16 -39 35 -19 19 -32 35
-29 35 3 0 20 -16 39 -35z m121 -112 c13 -16 12 -17 -3 -4 -10 7 -18 15 -18
17 0 8 8 3 21 -13z m70 -60 c13 -16 12 -17 -3 -4 -10 7 -18 15 -18 17 0 8 8 3
21 -13z m-331 -58 c19 -19 32 -35 29 -35 -3 0 -20 16 -39 35 -19 19 -32 35
-29 35 3 0 20 -16 39 -35z m401 -2 c13 -16 12 -17 -3 -4 -10 7 -18 15 -18 17
0 8 8 3 21 -13z m-300 -90 c13 -16 12 -17 -3 -4 -10 7 -18 15 -18 17 0 8 8 3
21 -13z m460 -40 c13 -16 12 -17 -3 -4 -10 7 -18 15 -18 17 0 8 8 3 21 -13z
m-386 -23 c10 -11 16 -20 13 -20 -3 0 -13 9 -23 20 -10 11 -16 20 -13 20 3 0
13 -9 23 -20z m226 -187 c13 -16 12 -17 -3 -4 -10 7 -18 15 -18 17 0 8 8 3 21
-13z m379 -280 c0 -7 -39 17 -46 28 -3 6 5 3 20 -6 14 -10 26 -19 26 -22z
m10637 -1279 c-3 -3 -12 -4 -19 -1 -8 3 -5 6 6 6 11 1 17 -2 13 -5z m106 -11
c-7 -2 -19 -2 -25 0 -7 3 -2 5 12 5 14 0 19 -2 13 -5z m-7108 -21 c-3 -3 -11
0 -18 7 -9 10 -8 11 6 5 10 -3 15 -9 12 -12z m3932 -168 c-3 -3 -12 -4 -19 -1
-8 3 -5 6 6 6 11 1 17 -2 13 -5z m-210 -30 c-3 -3 -12 -4 -19 -1 -8 3 -5 6 6
6 11 1 17 -2 13 -5z m-240 -30 c-3 -3 -12 -4 -19 -1 -8 3 -5 6 6 6 11 1 17 -2
13 -5z m-90 -10 c-3 -3 -12 -4 -19 -1 -8 3 -5 6 6 6 11 1 17 -2 13 -5z m-100
-10 c-3 -3 -12 -4 -19 -1 -8 3 -5 6 6 6 11 1 17 -2 13 -5z m-114 -11 c-7 -2
-19 -2 -25 0 -7 3 -2 5 12 5 14 0 19 -2 13 -5z m-1646 -9 c-3 -3 -12 -4 -19
-1 -8 3 -5 6 6 6 11 1 17 -2 13 -5z m1526 -1 c-7 -2 -19 -2 -25 0 -7 3 -2 5
12 5 14 0 19 -2 13 -5z m-140 -10 c-7 -2 -21 -2 -30 0 -10 3 -4 5 12 5 17 0
24 -2 18 -5z m-1206 -9 c-3 -3 -12 -4 -19 -1 -8 3 -5 6 6 6 11 1 17 -2 13 -5z
m1021 -1 c-10 -2 -26 -2 -35 0 -10 3 -2 5 17 5 19 0 27 -2 18 -5z m-690 -10
c-21 -2 -55 -2 -75 0 -21 2 -4 4 37 4 41 0 58 -2 38 -4z m390 0 c-21 -2 -55
-2 -75 0 -21 2 -4 4 37 4 41 0 58 -2 38 -4z"/>
<path d="M21124 24795 c-8 -19 13 -45 34 -45 22 0 52 30 45 46 -7 19 -72 19
-79 -1z"/>
<path d="M20030 24250 c0 -11 5 -20 10 -20 6 0 10 9 10 20 0 11 -4 20 -10 20
-5 0 -10 -9 -10 -20z"/>
<path d="M20160 23820 c0 -16 5 -30 10 -30 6 0 10 14 10 30 0 17 -4 30 -10 30
-5 0 -10 -13 -10 -30z"/>
<path d="M20174 23718 c4 -28 10 -56 13 -62 4 -5 7 -26 7 -45 1 -20 6 -38 11
-41 14 -7 19 58 6 74 -6 6 -8 21 -5 33 3 11 1 24 -5 27 -6 4 -11 20 -11 37 0
16 -5 29 -11 29 -8 0 -9 -16 -5 -52z"/>
<path d="M20244 23374 c3 -9 9 -27 12 -40 3 -13 12 -24 20 -24 17 0 17 3 0 45
-14 34 -45 52 -32 19z"/>
<path d="M20285 23244 c9 -69 11 -73 31 -52 14 14 14 20 1 59 -23 67 -40 63
-32 -7z"/>
<path d="M10290 23255 c0 -9 5 -15 11 -13 6 2 11 8 11 13 0 5 -5 11 -11 13 -6
2 -11 -4 -11 -13z"/>
<path d="M10116 23245 c-34 -34 -14 -45 84 -45 38 0 72 5 75 10 13 21 -16 39
-58 38 -23 -1 -51 2 -63 6 -14 5 -26 2 -38 -9z"/>
<path d="M10843 23253 c-25 -10 -12 -23 21 -23 38 0 55 14 30 24 -18 7 -33 7
-51 -1z"/>
<path d="M10359 23219 c17 -14 27 -17 35 -9 13 13 -9 30 -39 30 -19 -1 -18 -2
4 -21z"/>
<path d="M20300 23126 c0 -8 5 -18 10 -21 6 -3 10 3 10 14 0 12 -4 21 -10 21
-5 0 -10 -6 -10 -14z"/>
<path d="M12040 23003 c0 -17 74 -44 110 -40 56 7 46 24 -17 29 -32 3 -66 9
-75 13 -10 4 -18 3 -18 -2z"/>
<path d="M20355 22978 c4 -18 10 -37 13 -42 2 -5 5 -32 6 -60 1 -28 6 -53 11
-56 12 -6 19 75 9 99 -4 9 -6 21 -5 28 1 6 -3 14 -9 18 -5 3 -10 15 -10 26 0
10 -5 19 -11 19 -7 0 -8 -12 -4 -32z"/>
<path d="M20456 22565 c4 -16 17 -59 29 -95 20 -60 24 -65 49 -63 30 2 96 39
96 54 0 5 -14 8 -32 7 -28 -3 -35 2 -53 37 -13 25 -29 41 -43 43 -12 2 -29 13
-37 25 -16 22 -16 21 -9 -8z"/>
<path d="M7376 22422 c-7 -12 24 -53 35 -47 15 10 10 25 -7 25 -14 0 -14 3 -4
15 10 12 10 15 -3 15 -9 0 -18 -4 -21 -8z"/>
<path d="M20520 22370 c0 -5 5 -10 10 -10 6 0 10 5 10 10 0 6 -4 10 -10 10 -5
0 -10 -4 -10 -10z"/>
<path d="M20536 22341 c-4 -6 -1 -21 6 -33 10 -20 13 -20 16 -6 5 23 -13 54
-22 39z"/>
<path d="M13990 22264 c0 -8 9 -14 20 -14 11 0 20 4 20 9 0 5 -9 11 -20 14
-13 3 -20 0 -20 -9z"/>
<path d="M20570 22255 c0 -14 32 -65 40 -65 13 0 13 6 -5 40 -13 26 -35 41
-35 25z"/>
<path d="M13996 22150 c6 -47 5 -51 -30 -86 -20 -20 -36 -38 -36 -40 0 -2 12
-2 28 2 54 12 73 59 56 143 -10 51 -25 36 -18 -19z"/>
<path d="M14170 22170 c0 -5 5 -10 10 -10 6 0 10 5 10 10 0 6 -4 10 -10 10 -5
0 -10 -4 -10 -10z"/>
<path d="M20622 22164 c3 -17 21 -21 26 -6 1 5 -4 12 -13 16 -11 4 -15 1 -13
-10z"/>
<path d="M14040 22080 c0 -5 5 -10 11 -10 5 0 7 5 4 10 -3 6 -8 10 -11 10 -2
0 -4 -4 -4 -10z"/>
<path d="M14300 22080 c0 -5 5 -10 10 -10 6 0 10 5 10 10 0 6 -4 10 -10 10 -5
0 -10 -4 -10 -10z"/>
<path d="M20715 21983 c20 -49 33 -61 40 -41 8 21 -21 78 -40 78 -13 0 -13 -5
0 -37z"/>
<path d="M21872 21997 c-10 -11 -9 -17 3 -27 21 -17 67 -4 63 18 -4 22 -51 28
-66 9z"/>
<path d="M14480 21990 c0 -5 5 -10 10 -10 6 0 10 5 10 10 0 6 -4 10 -10 10 -5
0 -10 -4 -10 -10z"/>
<path d="M20820 21990 c0 -5 7 -10 15 -10 8 0 15 5 15 10 0 6 -7 10 -15 10 -8
0 -15 -4 -15 -10z"/>
<path d="M20761 21893 c5 -15 18 -43 29 -63 10 -19 30 -66 45 -105 15 -38 31
-80 36 -92 8 -21 29 -32 29 -15 -1 29 -32 115 -55 152 -16 25 -30 55 -31 66
-4 34 -33 84 -49 84 -12 0 -12 -5 -4 -27z"/>
<path d="M20952 21608 c4 -30 43 -33 43 -3 0 13 -8 21 -23 23 -20 3 -23 0 -20
-20z"/>
<path d="M20895 21578 c10 -33 47 -98 56 -98 12 0 7 60 -6 68 -7 4 -17 17 -24
30 -6 12 -16 22 -22 22 -6 0 -8 -9 -4 -22z"/>
<path d="M21072 21129 c3 -8 15 -44 27 -81 24 -71 41 -95 40 -56 0 34 -44 141
-59 146 -8 3 -11 -1 -8 -9z"/>
<path d="M21130 20956 c0 -3 13 -39 30 -81 16 -41 33 -93 36 -115 4 -24 11
-39 18 -37 6 2 10 10 9 18 -9 67 -62 210 -80 217 -7 2 -13 1 -13 -2z"/>
<path d="M21370 20355 c0 -8 5 -15 10 -15 6 0 10 7 10 15 0 8 -4 15 -10 15 -5
0 -10 -7 -10 -15z"/>
<path d="M21458 20000 c-1 -16 -2 -37 -2 -47 -1 -9 5 -18 12 -20 8 -3 12 10
12 46 0 54 -19 72 -22 21z"/>
<path d="M23196 19951 c-4 -7 -5 -15 -2 -18 9 -9 19 4 14 18 -4 11 -6 11 -12
0z"/>
<path d="M21474 19813 c7 -56 11 -71 21 -62 8 9 -8 119 -18 119 -6 0 -7 -21
-3 -57z"/>
<path d="M21494 19708 c8 -40 23 -57 31 -36 8 19 -11 68 -26 68 -8 0 -9 -11
-5 -32z"/>
<path d="M21525 19619 c14 -46 25 -56 23 -20 -2 19 -9 36 -17 39 -10 3 -11 -2
-6 -19z"/>
<path d="M21555 19540 c4 -6 11 -8 16 -5 14 9 11 15 -7 15 -8 0 -12 -5 -9 -10z"/>
<path d="M21565 19510 c-3 -5 1 -10 9 -10 9 0 16 5 16 10 0 6 -4 10 -9 10 -6
0 -13 -4 -16 -10z"/>
<path d="M21584 19465 c3 -16 9 -54 12 -82 4 -29 11 -53 17 -53 15 0 -2 133
-20 150 -14 13 -15 12 -9 -15z"/>
<path d="M5615 19370 c-7 -12 2 -30 16 -30 5 0 9 9 9 20 0 21 -15 27 -25 10z"/>
<path d="M21610 19191 c0 -29 4 -41 15 -41 10 0 14 10 12 37 -3 52 -27 56 -27
4z"/>
<path d="M21640 18910 c0 -18 4 -29 10 -25 6 3 10 15 10 25 0 10 -4 22 -10 25
-6 4 -10 -7 -10 -25z"/>
<path d="M21600 18595 c0 -19 5 -35 10 -35 6 0 10 16 10 35 0 19 -4 35 -10 35
-5 0 -10 -16 -10 -35z"/>
<path d="M21640 18490 c0 -23 5 -30 19 -30 10 0 21 7 25 15 8 23 -4 45 -25 45
-14 0 -19 -7 -19 -30z"/>
<path d="M23296 18395 c-10 -8 -15 -19 -10 -26 5 -9 11 -7 21 7 8 10 17 18 21
16 3 -2 8 1 10 7 5 15 -19 13 -42 -4z"/>
<path d="M23325 18360 c3 -5 8 -10 11 -10 2 0 4 5 4 10 0 6 -5 10 -11 10 -5 0
-7 -4 -4 -10z"/>
<path d="M21600 18321 c0 -21 7 -34 21 -42 27 -14 42 0 37 37 -2 23 -9 30 -30
32 -25 3 -28 0 -28 -27z"/>
<path d="M23271 18329 c-12 -33 -2 -45 16 -19 11 16 12 25 4 33 -7 7 -13 4
-20 -14z"/>
<path d="M23310 18290 c0 -5 5 -10 10 -10 6 0 10 5 10 10 0 6 -4 10 -10 10 -5
0 -10 -4 -10 -10z"/>
<path d="M23260 18229 c0 -16 13 -39 21 -39 5 0 9 7 9 15 0 8 7 15 15 15 8 0
15 4 15 8 0 5 -13 9 -30 9 -16 0 -30 -4 -30 -8z"/>
<path d="M21610 18195 c-11 -13 -11 -19 3 -32 21 -21 49 -9 45 19 -4 28 -30
35 -48 13z"/>
<path d="M21622 18081 c-18 -11 -11 -56 8 -56 17 0 27 42 13 56 -4 4 -14 4
-21 0z"/>
<path d="M4380 16175 c-11 -13 -11 -19 3 -32 21 -21 49 -9 45 19 -4 28 -30 35
-48 13z"/>
<path d="M15610 14670 c0 -5 9 -10 20 -10 11 0 20 5 20 10 0 6 -9 10 -20 10
-11 0 -20 -4 -20 -10z"/>
<path d="M16325 14670 c-4 -6 10 -10 34 -10 23 0 41 5 41 10 0 6 -15 10 -34
10 -19 0 -38 -4 -41 -10z"/>
<path d="M16410 14660 c0 -5 8 -10 18 -10 10 0 23 -5 30 -12 9 -9 15 -9 24 0
8 8 5 14 -16 22 -34 13 -56 13 -56 0z"/>
<path d="M16750 14585 c0 -18 112 -14 118 3 3 10 -10 13 -57 11 -40 -2 -61 -6
-61 -14z"/>
<path d="M15325 14567 c-65 -22 -71 -25 -64 -32 7 -7 80 17 114 37 37 22 27
21 -50 -5z"/>
<path d="M15210 14524 c0 -9 7 -14 17 -12 25 5 28 28 4 28 -12 0 -21 -6 -21
-16z"/>
<path d="M15105 14500 c3 -5 8 -10 11 -10 2 0 4 5 4 10 0 6 -5 10 -11 10 -5 0
-7 -4 -4 -10z"/>
<path d="M22990 14446 c0 -8 -3 -21 -6 -30 -4 -11 -1 -16 10 -16 11 0 16 9 16
30 0 17 -4 30 -10 30 -5 0 -10 -6 -10 -14z"/>
<path d="M19081 14387 c-15 -19 -4 -27 36 -27 21 0 33 5 33 14 0 26 -50 35
-69 13z"/>
<path d="M14653 14335 c-13 -5 -23 -13 -23 -18 0 -10 50 2 73 18 17 12 17 13
-5 11 -13 0 -33 -5 -45 -11z"/>
<path d="M14570 14310 c0 -5 11 -10 25 -10 14 0 25 5 25 10 0 6 -11 10 -25 10
-14 0 -25 -4 -25 -10z"/>
<path d="M5346 14291 c-4 -5 3 -15 14 -21 16 -9 18 -15 10 -30 -9 -16 -21 -20
-65 -20 -57 0 -85 -7 -85 -21 0 -12 113 -12 126 0 5 5 23 11 39 13 21 2 30 8
30 22 0 22 -60 72 -69 57z"/>
<path d="M18435 14274 c-10 -10 -15 -29 -13 -48 2 -26 -1 -32 -19 -34 -41 -6
-17 -42 27 -42 20 0 33 10 52 40 31 46 42 77 31 83 -27 15 -63 16 -78 1z"/>
<path d="M8246 13213 c-11 -11 -6 -23 9 -23 8 0 15 4 15 9 0 13 -16 22 -24 14z"/>
<path d="M10035 12151 c-7 -12 12 -24 25 -16 11 7 4 25 -10 25 -5 0 -11 -4
-15 -9z"/>
<path d="M22315 11930 c3 -5 8 -10 11 -10 2 0 4 5 4 10 0 6 -5 10 -11 10 -5 0
-7 -4 -4 -10z"/>
<path d="M22060 10990 c0 -5 5 -10 10 -10 6 0 10 5 10 10 0 6 -4 10 -10 10 -5
0 -10 -4 -10 -10z"/>
<path d="M13480 10550 c0 -5 5 -10 10 -10 6 0 10 5 10 10 0 6 -4 10 -10 10 -5
0 -10 -4 -10 -10z"/>
<path d="M9565 9560 c3 -5 8 -10 11 -10 2 0 4 5 4 10 0 6 -5 10 -11 10 -5 0
-7 -4 -4 -10z"/>
<path d="M11443 8803 c-22 -8 -14 -23 13 -23 15 0 24 5 22 12 -5 14 -18 18
-35 11z"/>
<path d="M21563 8607 c-22 -9 -29 -23 -37 -64 -2 -10 -5 -22 -7 -28 -3 -14 12
-45 22 -45 5 0 7 11 3 24 -6 26 7 58 38 92 23 25 13 36 -19 21z"/>
<path d="M13862 8511 c-17 -10 -12 -73 6 -79 8 -2 12 8 12 30 0 19 5 39 12 46
9 9 9 12 -2 12 -8 0 -21 -4 -28 -9z"/>
<path d="M21555 8440 c3 -5 8 -10 11 -10 2 0 4 5 4 10 0 6 -5 10 -11 10 -5 0
-7 -4 -4 -10z"/>
<path d="M21533 8370 c-30 -12 -29 -28 3 -36 29 -8 49 7 41 30 -7 18 -12 19
-44 6z"/>
<path d="M12110 8290 c0 -25 4 -30 25 -30 21 0 25 5 25 30 0 25 -4 30 -25 30
-21 0 -25 -5 -25 -30z"/>
<path d="M21524 8157 c-6 -17 2 -37 16 -37 15 0 19 29 5 40 -12 10 -16 9 -21
-3z"/>
<path d="M20247 8124 c-11 -11 -8 -74 3 -74 14 0 23 46 13 65 -5 8 -12 12 -16
9z"/>
<path d="M21544 8018 c3 -13 6 -26 6 -30 0 -5 7 -8 15 -8 17 0 18 4 9 38 -4
12 -13 22 -21 22 -11 0 -14 -6 -9 -22z"/>
<path d="M21597 7983 c-14 -13 -6 -23 18 -23 16 0 25 6 25 15 0 15 -31 21 -43
8z"/>
<path d="M20267 7834 c-4 -4 -7 -27 -7 -51 0 -37 3 -44 18 -41 13 3 17 13 17
47 0 41 -12 61 -28 45z"/>
<path d="M20264 7646 c-8 -21 -1 -49 14 -54 8 -2 12 7 12 27 0 33 -17 51 -26
27z"/>
<path d="M15010 7545 c0 -8 5 -15 10 -15 6 0 10 7 10 15 0 8 -4 15 -10 15 -5
0 -10 -7 -10 -15z"/>
<path d="M12904 6925 c-5 -11 4 -25 27 -45 l34 -29 -17 -31 c-21 -38 -22 -50
-5 -50 13 0 57 52 57 67 -1 4 -21 30 -45 56 -36 39 -46 46 -51 32z"/>
<path d="M13008 6793 c-36 -18 -36 -33 1 -33 26 0 41 14 41 41 0 12 -9 10 -42
-8z"/>
<path d="M12835 6760 c-10 -17 5 -30 34 -30 29 0 57 21 44 33 -10 11 -71 8
-78 -3z"/>
<path d="M14010 6645 c0 -14 4 -25 9 -25 12 0 23 29 15 41 -10 18 -24 9 -24
-16z"/>
<path d="M13997 6343 c-3 -16 -3 -30 -1 -33 7 -7 24 23 24 43 0 27 -17 20 -23
-10z"/>
<path d="M12591 6242 c-8 -16 -7 -21 5 -26 18 -7 31 21 16 36 -7 7 -13 4 -21
-10z"/>
<path d="M12642 6148 c2 -13 9 -22 16 -20 18 3 42 -23 42 -46 0 -23 30 -52 53
-52 26 0 20 20 -22 80 -28 41 -45 56 -65 58 -24 3 -27 0 -24 -20z"/>
</g>
</svg>
